<svg width="39" height="40" viewBox="0 0 39 40" fill="none" xmlns="http://www.w3.org/2000/svg">
<g clip-path="url(#clip0_1_1452)">
<path d="M4.46027 17.6023C10.5124 5.22045 28.1591 5.22045 34.2112 17.6023L37.7464 24.8328C38.3804 26.1299 38.7092 27.555 38.7093 28.9988C38.7093 35.5468 32.2025 40.1188 25.761 38.9422C23.526 38.5339 21.2944 38.2586 19.3362 38.2586C17.3779 38.2586 15.1457 38.5338 12.9105 38.9422C6.46908 40.1188 -0.0377808 35.5468 -0.0377808 28.9988C-0.0377318 27.555 0.292065 26.1299 0.926086 24.8328L4.46027 17.6023ZM12.8499 21.8152C10.5019 21.0937 7.85855 22.9156 6.94562 25.8845C6.03278 28.8538 7.1962 31.846 9.54425 32.5681C11.8925 33.2899 14.5367 31.4681 15.4495 28.4988C16.3621 25.5297 15.1979 22.5372 12.8499 21.8152ZM31.2269 24.6277C30.1006 20.9643 27.2831 18.5799 24.9349 19.3015C22.587 20.0238 21.5968 23.5787 22.723 27.242C23.8493 30.9055 26.6657 33.2901 29.014 32.5681C31.362 31.846 32.3531 28.2911 31.2269 24.6277Z" fill="#FD92CA"/>
<circle cx="5.08445" cy="5.72989" r="3.95035" fill="#FD92CA"/>
<circle cx="33.6253" cy="5.72989" r="3.95035" fill="#FD92CA"/>
</g>
<defs>
<clipPath id="clip0_1_1452">
<rect width="38.7097" height="38.7097" fill="white" transform="translate(0 0.645264)"/>
</clipPath>
</defs>
</svg>
