<svg width="128" height="29" viewBox="0 0 128 29" fill="none" xmlns="http://www.w3.org/2000/svg">
<path d="M8.79353 7.07742C12.5968 7.07742 15.7322 10.4161 15.7322 14.7419C15.7322 19.0677 12.5968 22.4065 8.79353 22.4065C6.84837 22.4065 5.42579 21.7387 4.46773 20.6355V27.8065H0.112888V7.48387H4.46773V8.84839C5.42579 7.74516 6.84837 7.07742 8.79353 7.07742ZM7.92257 18.2839C9.92579 18.2839 11.3774 16.9194 11.3774 14.7419C11.3774 12.5645 9.92579 11.2 7.92257 11.2C5.91934 11.2 4.46773 12.5645 4.46773 14.7419C4.46773 16.9194 5.91934 18.2839 7.92257 18.2839ZM20.3788 6.20645C18.9562 6.20645 17.7659 5.01613 17.7659 3.59355C17.7659 2.17097 18.9562 0.980643 20.3788 0.980643C21.8013 0.980643 22.9917 2.17097 22.9917 3.59355C22.9917 5.01613 21.8013 6.20645 20.3788 6.20645ZM18.2013 22V7.48387H22.5562V22H18.2013ZM36.3978 7.48387H40.6365V21.2742C40.6365 26.1516 36.8333 28.2129 32.972 28.2129C29.9526 28.2129 27.4268 27.0806 26.0913 24.7L29.8074 22.5516C30.3591 23.5677 31.201 24.3806 33.1171 24.3806C35.1494 24.3806 36.3978 23.3355 36.3978 21.2742V19.9387C35.4397 21.129 34.0462 21.8258 32.1591 21.8258C28.0365 21.8258 25.0171 18.4581 25.0171 14.4516C25.0171 10.4452 28.0365 7.07742 32.1591 7.07742C34.0462 7.07742 35.4397 7.77419 36.3978 8.96451V7.48387ZM32.8849 17.8194C34.9462 17.8194 36.3978 16.4548 36.3978 14.4516C36.3978 12.4484 34.9462 11.0839 32.8849 11.0839C30.8236 11.0839 29.372 12.4484 29.372 14.4516C29.372 16.4548 30.8236 17.8194 32.8849 17.8194ZM54.4862 7.48387H58.7249V21.2742C58.7249 26.1516 54.9217 28.2129 51.0604 28.2129C48.0411 28.2129 45.5153 27.0806 44.1798 24.7L47.8959 22.5516C48.4475 23.5677 49.2895 24.3806 51.2056 24.3806C53.2378 24.3806 54.4862 23.3355 54.4862 21.2742V19.9387C53.5282 21.129 52.1346 21.8258 50.2475 21.8258C46.1249 21.8258 43.1056 18.4581 43.1056 14.4516C43.1056 10.4452 46.1249 7.07742 50.2475 7.07742C52.1346 7.07742 53.5282 7.77419 54.4862 8.96451V7.48387ZM50.9733 17.8194C53.0346 17.8194 54.4862 16.4548 54.4862 14.4516C54.4862 12.4484 53.0346 11.0839 50.9733 11.0839C48.912 11.0839 47.4604 12.4484 47.4604 14.4516C47.4604 16.4548 48.912 17.8194 50.9733 17.8194ZM71.065 7.48387H75.7102L70.7457 21.5645C69.1198 26.1806 66.536 28.0097 62.4715 27.8065V23.7419C64.5037 23.7419 65.4618 23.1032 66.1005 21.3323L60.3231 7.48387H65.1134L68.336 16.3677L71.065 7.48387ZM93.2536 7.07742C97.0568 7.07742 100.192 10.4161 100.192 14.7419C100.192 19.0677 97.0568 22.4065 93.2536 22.4065C91.3084 22.4065 89.8859 21.7387 88.9278 20.6355V27.8065H84.5729V7.48387H88.9278V8.84839C89.8859 7.74516 91.3084 7.07742 93.2536 7.07742ZM92.3826 18.2839C94.3859 18.2839 95.8375 16.9194 95.8375 14.7419C95.8375 12.5645 94.3859 11.2 92.3826 11.2C90.3794 11.2 88.9278 12.5645 88.9278 14.7419C88.9278 16.9194 90.3794 18.2839 92.3826 18.2839ZM109.629 22.4065C105.361 22.4065 101.936 19.0677 101.936 14.7419C101.936 10.4161 105.361 7.07742 109.629 7.07742C113.897 7.07742 117.323 10.4161 117.323 14.7419C117.323 19.0677 113.897 22.4065 109.629 22.4065ZM109.629 18.1677C111.516 18.1677 112.968 16.8032 112.968 14.7419C112.968 12.6806 111.516 11.3161 109.629 11.3161C107.742 11.3161 106.29 12.6806 106.29 14.7419C106.29 16.8032 107.742 18.1677 109.629 18.1677ZM128.009 11.6645H125.019V16.8032C125.019 18.0516 126.093 18.1677 128.009 18.0516V22C122.319 22.5806 120.664 20.8677 120.664 16.8032V11.6645H118.341V7.48387H120.664V4.72581L125.019 3.41935V7.48387H128.009V11.6645Z" fill="#FD92CA"/>
</svg>
