<svg id="svg" version="1.1" xmlns="http://www.w3.org/2000/svg" xmlns:xlink="http://www.w3.org/1999/xlink" width="400" height="400" viewBox="0, 0, 400,400"><g id="svgg"><path id="path0" d="M215.039 33.613 C 192.329 35.767,175.731 55.373,176.664 78.940 L 176.878 84.338 175.060 84.568 C 163.039 86.088,151.644 89.074,143.212 92.914 L 140.525 94.137 136.888 90.660 C 122.497 76.903,100.428 72.154,97.694 82.227 C 96.749 85.707,96.910 86.628,102.202 108.008 L 105.973 123.242 103.475 126.956 C 98.718 134.027,94.072 144.005,91.384 152.924 L 89.973 157.605 87.662 158.408 C 60.142 167.963,64.142 213.940,93.049 220.327 C 95.205 220.804,95.323 220.897,96.672 223.203 C 100.116 229.091,106.817 236.552,114.263 242.787 L 118.255 246.130 118.523 249.920 C 119.081 257.836,120.979 267.837,122.468 270.717 C 123.179 272.093,123.352 271.995,118.107 273.177 C 98.628 277.565,114.433 283.428,155.078 286.892 C 182.982 289.270,228.028 289.184,254.883 286.702 C 297.188 282.791,310.268 277.508,288.323 273.194 C 282.313 272.013,282.662 272.315,283.969 269.427 C 285.837 265.301,288.044 254.832,290.076 240.456 L 290.735 235.795 293.515 232.058 C 303.904 218.089,310.110 200.166,311.546 179.980 L 311.789 176.563 313.150 176.563 C 320.868 176.563,329.812 168.763,331.292 160.742 C 332.914 151.947,326.753 143.728,319.724 145.313 C 315.569 146.249,315.603 151.262,319.769 152.129 C 328.090 153.860,322.549 167.348,312.990 168.630 L 311.436 168.838 310.966 164.986 C 307.867 139.597,293.825 117.429,271.293 102.354 C 267.329 99.701,259.668 95.313,259.003 95.313 C 258.212 95.312,258.250 94.524,259.135 92.521 C 272.161 63.067,247.787 30.505,215.039 33.613 M229.688 41.204 C 256.875 50.016,263.983 85.343,242.275 103.759 L 239.687 105.954 237.324 105.702 C 236.024 105.564,233.203 105.247,231.055 104.998 C 225.923 104.404,204.557 104.394,200.985 104.985 L 198.260 105.435 196.493 104.079 C 184.461 94.844,180.643 76.081,187.726 60.996 C 195.412 44.627,213.675 36.013,229.688 41.204 M213.926 50.293 C 213.823 50.669,213.625 51.855,213.487 52.930 C 213.042 56.403,213.375 56.191,208.738 55.954 C 204.023 55.713,204.083 55.678,203.682 58.886 C 203.355 61.505,203.741 61.967,206.453 62.191 C 209.310 62.428,209.214 61.587,207.660 72.717 C 206.900 78.162,206.161 83.544,206.017 84.677 C 205.700 87.184,205.512 87.315,202.458 87.162 C 199.683 87.022,199.570 87.172,199.467 91.116 L 199.414 93.152 203.511 93.870 C 208.447 94.735,207.946 94.174,207.383 98.203 C 206.838 102.096,206.774 101.967,209.460 102.392 C 212.122 102.813,212.428 102.488,213.042 98.591 L 213.527 95.508 214.814 95.570 C 216.637 95.658,216.739 95.922,216.283 99.368 C 215.788 103.105,216.175 103.620,219.336 103.435 L 221.289 103.320 221.822 99.954 L 222.355 96.588 225.728 96.374 C 230.100 96.097,232.542 95.213,234.589 93.165 C 238.778 88.977,238.614 80.971,234.282 78.165 L 232.836 77.228 234.334 75.730 C 240.037 70.028,236.737 61.563,227.596 58.444 C 227.185 58.303,226.962 57.962,227.080 57.654 C 227.656 56.153,227.802 51.714,227.288 51.304 C 225.053 49.517,222.495 50.414,222.094 53.125 C 221.490 57.202,221.554 57.086,219.984 56.955 C 219.187 56.889,218.591 56.641,218.637 56.395 C 219.251 53.086,219.213 50.629,218.540 50.136 C 217.436 49.329,214.162 49.440,213.926 50.293 M225.195 64.797 C 228.133 66.146,229.217 68.604,227.952 71.051 C 226.613 73.640,223.863 74.358,219.010 73.384 C 216.448 72.869,216.516 73.097,217.258 67.525 L 217.719 64.063 220.676 64.071 C 222.702 64.077,224.124 64.305,225.195 64.797 M223.200 80.131 C 228.670 81.064,230.279 86.597,225.686 88.681 C 223.560 89.646,215.910 89.478,214.876 88.443 C 214.665 88.233,215.557 80.710,215.898 79.822 C 216.139 79.193,218.217 79.281,223.200 80.131 M110.859 84.945 C 117.928 86.431,124.928 90.172,130.961 95.685 C 133.583 98.082,133.574 98.050,131.953 99.008 C 129.214 100.625,121.421 106.783,116.913 110.890 L 112.146 115.234 111.732 113.769 C 108.655 102.878,104.579 85.073,105.088 84.751 C 105.913 84.229,107.753 84.291,110.859 84.945 M180.639 95.560 C 181.620 97.630,182.422 99.380,182.422 99.450 C 182.422 99.673,177.266 101.105,173.242 101.999 C 168.779 102.990,167.969 103.499,167.969 105.312 C 167.969 106.656,169.072 107.813,170.354 107.813 C 171.555 107.813,177.131 110.888,179.146 112.662 L 181.144 114.421 178.267 117.297 C 175.010 120.555,174.505 122.249,176.240 124.096 C 177.844 125.803,179.512 125.378,183.349 122.284 C 190.184 116.771,195.114 114.628,201.866 114.234 C 209.864 113.769,210.203 114.178,210.298 124.414 C 210.390 134.422,207.894 142.745,202.568 150.194 C 198.487 155.901,204.666 159.752,208.895 154.138 C 217.863 142.231,220.699 125.018,215.782 112.339 C 214.980 110.270,236.494 112.658,247.354 115.844 C 254.218 117.857,255.861 117.494,255.858 113.965 C 255.856 111.498,254.698 109.903,252.041 108.705 C 250.811 108.150,249.737 107.640,249.653 107.571 C 249.570 107.501,250.530 106.165,251.787 104.601 C 253.043 103.037,254.128 101.678,254.198 101.581 C 254.267 101.484,255.680 102.074,257.338 102.891 C 296.414 122.161,312.953 163.353,298.760 206.055 C 295.922 214.595,292.541 220.831,285.488 230.532 C 283.568 233.172,283.280 233.816,283.039 236.000 C 280.254 261.273,277.479 270.011,271.701 271.690 C 262.375 274.402,257.490 270.928,255.275 260.008 L 254.326 255.331 255.706 254.130 C 258.633 251.585,257.517 247.420,253.933 247.514 C 253.046 247.538,252.018 247.823,251.648 248.149 C 247.091 252.164,224.358 258.833,210.742 260.149 C 204.891 260.715,205.337 260.836,205.648 258.763 C 206.020 256.277,205.217 255.078,203.177 255.078 C 200.936 255.078,200.538 255.823,198.451 263.920 C 194.729 278.366,193.320 280.078,185.158 280.078 C 175.954 280.078,174.774 278.608,171.683 263.300 C 170.215 256.023,169.773 255.078,167.841 255.078 C 166.239 255.078,165.234 256.080,165.234 257.678 C 165.234 259.310,165.181 259.311,159.170 257.838 C 145.984 254.606,132.233 247.687,120.702 238.482 C 112.275 231.755,101.542 219.531,104.062 219.531 C 105.786 219.531,112.020 215.752,114.635 213.121 C 129.906 197.756,120.289 166.350,98.644 160.900 C 96.443 160.345,96.443 160.337,98.791 153.410 C 108.308 125.339,129.245 104.394,156.095 96.087 C 162.342 94.154,173.440 91.941,177.417 91.835 L 178.857 91.797 180.639 95.560 M110.507 146.207 C 107.441 148.272,105.983 154.245,107.872 157.001 C 110.715 161.147,115.903 158.126,116.972 151.704 C 117.779 146.855,114.139 143.760,110.507 146.207 M149.790 157.529 C 145.626 161.694,145.889 170.844,150.214 172.272 C 155.038 173.864,159.607 166.206,157.773 159.601 C 156.643 155.530,152.789 154.530,149.790 157.529 M97.623 167.927 C 114.409 174.086,121.014 196.078,109.678 208.064 C 97.271 221.183,75.569 207.826,75.631 187.109 C 75.679 171.106,84.742 163.201,97.623 167.927 M83.985 182.421 C 81.890 184.663,81.365 191.355,83.099 193.699 C 86.088 197.740,89.844 194.670,89.844 188.186 C 89.844 182.262,86.868 179.335,83.985 182.421 M99.372 185.328 C 96.932 186.383,95.361 192.338,96.454 196.380 C 97.897 201.713,102.461 201.495,104.088 196.016 C 105.977 189.658,103.314 183.623,99.372 185.328 M140.767 198.990 C 139.507 199.898,139.317 201.337,140.193 203.319 L 140.957 205.044 138.481 207.359 C 134.722 210.876,129.840 212.884,125.016 212.896 C 120.289 212.909,118.011 217.007,121.777 218.723 C 127.385 221.278,137.539 218.482,142.863 212.917 C 145.903 209.739,146.075 209.568,148.203 207.617 C 150.642 205.381,150.072 203.281,146.241 200.389 C 143.808 198.551,142.013 198.093,140.767 198.990 M130.901 254.552 C 135.519 257.325,141.530 260.130,146.776 261.962 C 150.571 263.286,150.638 263.465,148.730 267.225 C 146.812 271.006,144.462 272.259,139.283 272.263 C 130.313 272.271,128.166 269.231,126.385 254.004 C 126.090 251.486,125.720 251.441,130.901 254.552 M247.735 260.771 C 248.139 262.857,249.274 267.658,249.505 268.261 C 249.651 268.641,248.204 268.750,243.011 268.750 C 239.335 268.750,236.332 268.706,236.337 268.652 C 236.535 266.440,238.859 263.797,242.633 261.490 C 247.218 258.686,247.328 258.671,247.735 260.771 M166.054 267.902 C 166.385 269.517,166.549 269.457,160.932 269.774 C 156.875 270.004,156.151 269.960,156.323 269.496 C 156.435 269.193,156.819 268.056,157.176 266.969 L 157.826 264.992 161.812 265.822 C 165.753 266.641,165.801 266.665,166.054 267.902 M217.217 267.807 L 218.164 268.816 211.914 268.715 C 208.477 268.660,205.513 268.535,205.329 268.438 C 204.548 268.026,206.250 267.587,208.789 267.545 C 210.994 267.509,214.872 267.139,216.045 266.852 C 216.169 266.822,216.696 267.251,217.217 267.807 M48.723 308.595 C 34.173 311.146,31.682 337.786,45.416 343.963 C 51.595 346.742,59.304 345.059,62.553 340.220 C 63.687 338.533,64.746 335.710,64.382 335.346 C 63.879 334.842,58.016 333.569,57.893 333.937 C 56.710 337.488,52.220 339.638,49.224 338.089 C 40.995 333.833,43.059 315.234,51.762 315.234 C 54.048 315.234,57.422 317.746,57.422 319.447 C 57.422 320.438,58.400 320.416,63.574 319.313 C 64.649 319.084,64.654 318.925,63.659 316.266 C 61.545 310.617,55.347 307.434,48.723 308.595 M195.721 308.630 C 186.780 310.382,181.843 320.348,184.017 332.252 C 187.098 349.122,209.040 349.982,213.281 333.400 C 217.090 318.508,208.334 306.157,195.721 308.630 M287.500 308.473 C 278.298 310.013,273.132 319.400,274.966 331.250 C 277.007 344.445,291.525 349.988,301.363 341.329 L 303.142 339.762 303.036 332.479 L 302.930 325.195 296.289 325.195 L 289.648 325.195 289.648 328.125 L 289.648 331.055 292.773 331.250 L 295.898 331.445 295.898 334.180 L 295.898 336.914 294.156 337.793 C 286.201 341.804,279.648 332.225,282.934 321.388 C 284.965 314.691,292.509 312.863,295.327 318.387 C 296.061 319.827,296.275 319.983,297.241 319.790 C 297.839 319.671,299.246 319.451,300.369 319.302 C 302.791 318.981,303.055 318.530,302.175 316.226 C 300.022 310.587,293.969 307.390,287.500 308.473 M320.418 308.593 C 311.257 310.523,306.041 321.706,308.940 333.203 C 311.794 344.522,324.393 349.137,333.585 342.230 C 336.821 339.799,336.751 340.029,336.630 332.148 L 336.523 325.195 329.688 325.195 L 322.852 325.195 322.852 328.125 L 322.852 331.055 326.172 331.250 L 329.492 331.445 329.492 334.158 C 329.492 337.773,326.750 339.380,322.077 338.504 C 315.499 337.270,313.402 323.272,318.892 317.248 C 321.791 314.067,327.008 314.638,328.898 318.344 C 329.341 319.212,329.832 319.922,329.988 319.921 C 330.703 319.920,336.009 318.809,336.197 318.621 C 336.313 318.505,336.104 317.476,335.734 316.334 C 333.950 310.840,326.830 307.242,320.418 308.593 M69.723 309.863 C 69.606 310.347,69.558 318.301,69.618 327.539 L 69.727 344.336 73.242 344.336 L 76.758 344.336 76.866 338.357 L 76.974 332.378 78.624 332.498 C 80.434 332.629,80.290 332.437,85.456 341.580 L 87.124 344.531 91.023 344.531 C 95.789 344.531,95.761 345.065,91.381 337.567 C 88.263 332.231,87.919 331.461,88.504 331.133 C 96.760 326.513,95.287 312.649,86.217 309.610 C 82.912 308.503,70.006 308.701,69.723 309.863 M95.703 309.501 C 95.703 309.800,98.061 314.860,100.942 320.745 L 106.181 331.445 105.968 336.573 C 105.850 339.393,105.875 342.344,106.023 343.131 L 106.291 344.561 109.688 344.449 L 113.086 344.336 113.281 337.500 L 113.477 330.664 118.457 320.456 C 124.518 308.034,124.412 308.984,119.736 308.984 C 115.311 308.984,115.938 308.300,112.471 316.899 C 111.106 320.285,109.839 323.006,109.657 322.945 C 109.474 322.885,108.062 319.763,106.518 316.007 L 103.711 309.180 99.707 309.068 C 96.493 308.979,95.703 309.064,95.703 309.501 M128.317 309.863 C 128.199 310.347,128.152 318.301,128.212 327.539 L 128.320 344.336 131.836 344.336 L 135.352 344.336 135.547 338.571 L 135.742 332.806 139.844 332.677 C 143.065 332.576,144.389 332.355,146.011 331.649 C 155.156 327.670,154.314 312.396,144.794 309.569 C 141.226 308.509,128.591 308.735,128.317 309.863 M155.876 309.734 C 155.432 310.563,155.326 313.626,155.706 314.616 C 155.901 315.124,156.657 315.234,159.955 315.234 C 165.277 315.234,164.816 313.839,164.936 330.307 L 165.039 344.336 168.296 344.531 C 170.397 344.657,171.678 344.576,171.904 344.302 C 172.098 344.068,172.302 337.476,172.358 329.653 L 172.461 315.430 176.872 315.319 L 181.282 315.208 181.169 312.194 L 181.055 309.180 168.669 309.077 C 156.737 308.977,156.268 309.001,155.876 309.734 M232.320 309.217 C 232.161 309.375,232.031 317.386,232.031 327.018 L 232.031 344.531 235.547 344.531 L 239.063 344.531 239.063 338.890 C 239.063 332.334,238.673 332.837,243.865 332.683 C 247.372 332.579,248.254 332.412,250.127 331.496 C 258.494 327.402,258.361 313.923,249.917 310.115 C 247.813 309.166,233.121 308.416,232.320 309.217 M261.898 309.473 C 261.795 309.741,261.756 317.783,261.812 327.344 L 261.914 344.727 265.031 344.842 C 267.627 344.939,268.231 344.844,268.644 344.279 C 269.284 343.404,269.371 310.925,268.736 309.740 C 268.243 308.819,262.238 308.584,261.898 309.473 M338.673 309.473 C 338.673 309.741,341.002 314.619,343.847 320.313 L 349.021 330.664 349.218 337.500 L 349.414 344.336 352.448 344.531 C 354.117 344.639,355.655 344.668,355.866 344.596 C 356.097 344.518,356.250 341.911,356.250 338.071 L 356.250 331.677 361.552 320.672 C 364.752 314.030,366.713 309.526,366.498 309.310 C 366.301 309.114,364.489 309.004,362.470 309.067 L 358.799 309.180 356.004 316.002 C 354.467 319.754,353.041 322.879,352.836 322.948 C 352.630 323.017,351.263 320.123,349.798 316.517 C 346.446 308.265,347.140 308.984,342.530 308.984 C 339.704 308.984,338.672 309.115,338.673 309.473 M141.783 315.745 C 144.727 316.759,145.919 321.062,144.031 323.862 C 142.761 325.748,141.644 326.193,138.477 326.077 L 135.742 325.977 135.632 320.929 C 135.550 317.153,135.649 315.801,136.023 315.564 C 136.757 315.098,140.221 315.207,141.783 315.745 M201.959 315.959 C 205.537 317.865,207.502 324.803,206.202 330.938 C 204.015 341.253,193.641 341.253,191.454 330.938 C 189.317 320.856,195.255 312.389,201.959 315.959 M246.769 316.237 C 249.754 318.181,249.316 323.982,246.056 325.686 C 245.484 325.985,243.972 326.138,242.188 326.077 L 239.258 325.977 239.148 321.149 C 239.009 315.059,239.014 315.052,242.957 315.406 C 244.575 315.551,246.290 315.925,246.769 316.237 M84.290 316.235 C 89.184 319.662,85.764 326.433,79.312 326.091 L 77.148 325.977 77.039 320.801 L 76.930 315.625 80.175 315.625 C 82.483 315.625,83.671 315.801,84.290 316.235 " stroke="none" fill="#1f2018" fill-rule="evenodd"></path><path id="path1" d="M0.000 200.000 L 0.000 400.000 200.000 400.000 L 400.000 400.000 400.000 200.000 L 400.000 0.000 200.000 0.000 L 0.000 0.000 0.000 200.000 M226.172 33.770 C 253.379 37.896,269.674 65.862,259.744 91.389 C 259.113 93.010,258.597 94.466,258.596 94.624 C 258.595 94.782,259.854 95.546,261.393 96.322 C 288.599 110.023,307.900 136.513,311.002 164.411 C 311.544 169.279,311.338 169.091,314.900 167.967 C 324.133 165.055,327.087 154.385,319.288 152.118 C 314.366 150.687,315.907 145.116,321.223 145.119 C 330.257 145.124,334.782 157.412,329.185 166.740 C 326.156 171.787,319.894 175.758,313.379 176.765 L 311.719 177.022 311.719 179.041 C 311.719 196.156,303.405 219.791,292.495 233.690 C 290.948 235.661,290.701 236.245,290.473 238.479 C 289.440 248.552,285.870 265.791,284.038 269.546 C 282.727 272.234,282.289 271.883,288.426 273.060 C 328.745 280.793,244.826 291.883,173.438 288.256 C 121.519 285.618,94.520 278.112,118.475 272.975 C 121.813 272.259,122.651 271.948,122.495 271.484 C 120.308 264.975,118.900 257.674,118.489 250.710 C 118.201 245.816,118.637 246.615,114.258 242.967 C 106.795 236.751,99.925 229.075,96.427 223.045 C 95.202 220.932,95.004 220.770,93.359 220.540 C 84.093 219.241,74.035 209.392,70.387 198.047 C 64.889 180.944,74.072 160.684,88.555 157.967 C 89.659 157.760,89.897 157.502,90.268 156.110 C 92.929 146.130,97.703 135.473,103.345 126.916 L 105.875 123.079 102.557 110.075 C 95.799 83.580,95.679 80.775,101.195 78.015 C 109.216 74.001,125.608 79.738,136.719 90.449 L 140.430 94.026 143.359 92.681 C 150.738 89.295,163.312 85.910,172.942 84.717 L 176.938 84.223 176.764 82.834 C 173.825 59.355,189.380 37.622,211.719 33.999 C 213.330 33.737,214.912 33.472,215.234 33.409 C 216.921 33.078,222.914 33.276,226.172 33.770 M145.703 100.195 C 145.166 100.502,144.902 100.754,145.117 100.754 C 145.332 100.754,145.947 100.502,146.484 100.195 C 147.021 99.888,147.285 99.637,147.070 99.637 C 146.855 99.637,146.240 99.888,145.703 100.195 M141.699 102.177 C 140.239 102.969,140.328 103.299,141.797 102.539 C 142.441 102.206,142.969 101.850,142.969 101.748 C 142.969 101.496,142.927 101.511,141.699 102.177 M258.984 104.081 C 258.984 104.189,259.512 104.550,260.156 104.883 C 260.801 105.216,261.328 105.401,261.328 105.294 C 261.328 105.186,260.801 104.825,260.156 104.492 C 259.512 104.159,258.984 103.974,258.984 104.081 M261.719 105.644 C 261.719 105.751,262.246 106.112,262.891 106.445 C 263.535 106.779,264.063 106.963,264.063 106.856 C 264.063 106.749,263.535 106.388,262.891 106.055 C 262.246 105.721,261.719 105.537,261.719 105.644 M264.453 107.149 C 264.453 107.238,265.464 107.960,266.699 108.753 C 267.935 109.546,268.465 109.786,267.877 109.287 C 266.717 108.301,264.453 106.887,264.453 107.149 M131.836 108.433 L 130.664 109.440 131.934 108.599 C 132.632 108.137,133.203 107.683,133.203 107.591 C 133.203 107.298,133.038 107.400,131.836 108.433 M251.986 108.321 C 252.075 108.386,252.676 108.748,253.320 109.126 L 254.492 109.812 253.570 109.008 C 253.063 108.565,252.462 108.203,252.235 108.203 C 252.009 108.203,251.896 108.256,251.986 108.321 M116.797 110.352 C 115.848 111.318,115.160 112.109,115.267 112.109 C 115.374 112.109,116.239 111.318,117.188 110.352 C 118.136 109.385,118.825 108.594,118.717 108.594 C 118.610 108.594,117.746 109.385,116.797 110.352 M172.689 109.132 C 173.088 109.493,176.172 110.933,176.172 110.758 C 176.172 110.536,173.224 108.984,172.802 108.984 C 172.650 108.984,172.599 109.051,172.689 109.132 M222.566 112.392 C 223.268 112.479,224.322 112.478,224.909 112.388 C 225.496 112.299,224.922 112.228,223.633 112.230 C 222.344 112.233,221.863 112.306,222.566 112.392 M272.852 113.082 C 276.789 116.625,279.529 118.860,277.331 116.736 C 276.142 115.588,274.384 114.059,273.424 113.338 C 272.337 112.522,272.121 112.425,272.852 113.082 M124.786 114.160 L 123.242 115.820 124.902 114.276 C 126.446 112.840,126.742 112.500,126.446 112.500 C 126.383 112.500,125.636 113.247,124.786 114.160 M228.223 112.769 C 228.599 112.868,229.214 112.868,229.590 112.769 C 229.966 112.671,229.658 112.591,228.906 112.591 C 228.154 112.591,227.847 112.671,228.223 112.769 M202.065 114.742 C 203.308 114.820,205.242 114.819,206.362 114.741 C 207.482 114.662,206.465 114.598,204.102 114.599 C 201.738 114.600,200.822 114.664,202.065 114.742 M177.344 117.383 C 176.395 118.350,175.706 119.141,175.814 119.141 C 175.921 119.141,176.786 118.350,177.734 117.383 C 178.683 116.416,179.372 115.625,179.264 115.625 C 179.157 115.625,178.293 116.416,177.344 117.383 M120.703 117.773 C 119.754 118.740,119.066 119.531,119.173 119.531 C 119.281 119.531,120.145 118.740,121.094 117.773 C 122.043 116.807,122.731 116.016,122.624 116.016 C 122.516 116.016,121.652 116.807,120.703 117.773 M281.949 121.387 C 283.020 122.622,284.307 123.984,284.808 124.414 C 285.309 124.844,284.516 123.833,283.046 122.168 C 281.576 120.503,280.289 119.141,280.187 119.141 C 280.085 119.141,280.877 120.151,281.949 121.387 M209.872 121.875 C 209.872 122.842,209.948 123.237,210.041 122.754 C 210.134 122.271,210.134 121.479,210.041 120.996 C 209.948 120.513,209.872 120.908,209.872 121.875 M116.583 122.363 L 115.039 124.023 116.699 122.479 C 118.243 121.043,118.539 120.703,118.243 120.703 C 118.180 120.703,117.432 121.450,116.583 122.363 M181.317 124.054 C 180.388 124.789,179.787 125.391,179.983 125.391 C 180.178 125.391,181.027 124.783,181.869 124.040 C 183.826 122.312,183.510 122.320,181.317 124.054 M175.000 123.394 C 175.000 123.765,176.909 125.585,177.061 125.360 C 177.123 125.269,176.684 124.723,176.086 124.146 C 175.489 123.569,175.000 123.231,175.000 123.394 M218.500 126.563 C 218.500 128.604,218.566 129.438,218.646 128.418 C 218.727 127.397,218.727 125.728,218.646 124.707 C 218.566 123.687,218.500 124.521,218.500 126.563 M112.109 127.734 C 111.429 128.594,110.960 129.297,111.067 129.297 C 111.175 129.297,111.819 128.594,112.500 127.734 C 113.181 126.875,113.650 126.172,113.542 126.172 C 113.435 126.172,112.790 126.875,112.109 127.734 M209.856 128.516 C 209.856 129.268,209.937 129.575,210.035 129.199 C 210.133 128.823,210.133 128.208,210.035 127.832 C 209.937 127.456,209.856 127.764,209.856 128.516 M288.281 128.906 C 288.740 129.551,289.204 130.078,289.311 130.078 C 289.418 130.078,289.131 129.551,288.672 128.906 C 288.213 128.262,287.750 127.734,287.642 127.734 C 287.535 127.734,287.822 128.262,288.281 128.906 M290.575 132.227 C 290.786 132.656,291.245 133.359,291.594 133.789 L 292.231 134.570 291.847 133.789 C 291.636 133.359,291.177 132.656,290.827 132.227 L 290.191 131.445 290.575 132.227 M107.617 134.375 C 107.284 135.020,107.099 135.547,107.206 135.547 C 107.314 135.547,107.675 135.020,108.008 134.375 C 108.341 133.730,108.526 133.203,108.419 133.203 C 108.311 133.203,107.950 133.730,107.617 134.375 M213.944 146.294 C 213.586 147.043,213.374 147.656,213.473 147.656 C 213.740 147.656,214.926 145.264,214.747 145.086 C 214.662 145.001,214.301 145.545,213.944 146.294 M117.299 150.586 C 117.302 151.660,117.378 152.053,117.468 151.459 C 117.558 150.866,117.555 149.987,117.462 149.506 C 117.370 149.026,117.296 149.512,117.299 150.586 M149.345 157.129 C 148.910 157.612,148.414 158.271,148.243 158.594 C 147.913 159.215,148.003 159.130,149.586 157.324 C 150.103 156.733,150.439 156.250,150.331 156.250 C 150.224 156.250,149.780 156.646,149.345 157.129 M101.953 161.914 C 102.490 162.221,103.105 162.472,103.320 162.472 C 103.535 162.472,103.271 162.221,102.734 161.914 C 102.197 161.607,101.582 161.356,101.367 161.356 C 101.152 161.356,101.416 161.607,101.953 161.914 M105.111 163.408 C 105.200 163.477,105.889 163.931,106.641 164.417 L 108.008 165.299 106.836 164.292 C 106.191 163.738,105.503 163.284,105.306 163.283 C 105.109 163.282,105.021 163.338,105.111 163.408 M108.203 165.320 C 108.203 165.397,109.038 166.146,110.059 166.985 C 111.079 167.823,111.563 168.105,111.133 167.611 C 110.373 166.738,108.203 165.041,108.203 165.320 M302.825 166.406 C 302.825 167.158,302.905 167.466,303.004 167.090 C 303.102 166.714,303.102 166.099,303.004 165.723 C 302.905 165.347,302.825 165.654,302.825 166.406 M155.249 171.191 L 154.102 172.461 155.371 171.314 C 156.554 170.244,156.820 169.922,156.518 169.922 C 156.451 169.922,155.880 170.493,155.249 171.191 M303.250 173.047 C 303.250 174.443,303.321 175.015,303.408 174.316 C 303.494 173.618,303.494 172.476,303.408 171.777 C 303.321 171.079,303.250 171.650,303.250 173.047 M115.796 172.785 C 116.397 173.573,116.969 174.219,117.065 174.219 C 117.337 174.219,115.645 171.934,115.145 171.625 C 114.901 171.474,115.194 171.996,115.796 172.785 M150.879 172.926 C 151.255 173.024,151.870 173.024,152.246 172.926 C 152.622 172.827,152.314 172.747,151.563 172.747 C 150.811 172.747,150.503 172.827,150.879 172.926 M106.250 173.169 C 106.250 173.236,106.821 173.808,107.520 174.439 L 108.789 175.586 107.642 174.316 C 106.572 173.133,106.250 172.867,106.250 173.169 M109.374 176.855 C 109.885 177.554,110.364 178.125,110.439 178.125 C 110.735 178.125,109.767 176.660,109.126 176.140 C 108.704 175.797,108.799 176.070,109.374 176.855 M303.231 180.469 C 303.231 181.436,303.308 181.831,303.401 181.348 C 303.494 180.864,303.494 180.073,303.401 179.590 C 303.308 179.106,303.231 179.502,303.231 180.469 M83.764 182.129 L 82.617 183.398 83.982 182.227 C 84.733 181.582,85.422 181.011,85.512 180.957 C 85.603 180.903,85.505 180.859,85.294 180.859 C 85.084 180.859,84.396 181.431,83.764 182.129 M75.888 184.766 C 75.888 185.732,75.964 186.128,76.057 185.645 C 76.150 185.161,76.150 184.370,76.057 183.887 C 75.964 183.403,75.888 183.799,75.888 184.766 M90.346 187.695 C 90.349 188.770,90.425 189.163,90.515 188.569 C 90.604 187.975,90.602 187.096,90.509 186.616 C 90.417 186.135,90.343 186.621,90.346 187.695 M114.592 193.164 C 114.591 195.098,114.657 195.938,114.739 195.031 C 114.820 194.125,114.821 192.543,114.741 191.516 C 114.660 190.489,114.593 191.230,114.592 193.164 M122.408 193.555 C 122.409 195.703,122.475 196.532,122.554 195.397 C 122.633 194.262,122.632 192.504,122.552 191.491 C 122.472 190.478,122.407 191.406,122.408 193.555 M83.889 195.215 C 84.416 195.718,85.259 196.077,85.862 196.054 C 86.839 196.017,86.823 195.992,85.629 195.709 C 84.921 195.542,84.034 195.164,83.656 194.870 C 83.279 194.576,83.383 194.731,83.889 195.215 M78.125 198.196 C 78.125 198.616,79.287 200.781,79.512 200.781 C 79.620 200.781,79.417 200.210,79.062 199.512 C 78.337 198.086,78.125 197.789,78.125 198.196 M139.469 202.858 C 139.460 203.033,139.641 203.528,139.871 203.957 C 140.178 204.531,140.158 204.911,139.795 205.396 C 139.336 206.007,139.351 206.009,140.000 205.418 C 140.644 204.831,140.651 204.693,140.092 203.660 C 139.758 203.043,139.477 202.682,139.469 202.858 M83.984 206.836 C 85.151 208.018,86.194 208.984,86.301 208.984 C 86.409 208.984,85.542 208.018,84.375 206.836 C 83.208 205.654,82.165 204.688,82.058 204.688 C 81.951 204.688,82.817 205.654,83.984 206.836 M149.297 206.820 C 149.056 207.350,148.148 208.232,147.281 208.780 C 146.413 209.327,145.703 209.864,145.703 209.972 C 145.703 210.079,146.353 209.756,147.148 209.253 C 148.644 208.307,150.296 206.416,149.940 206.059 C 149.828 205.948,149.539 206.290,149.297 206.820 M114.624 213.770 L 113.477 215.039 114.746 213.892 C 115.929 212.822,116.195 212.500,115.893 212.500 C 115.826 212.500,115.255 213.071,114.624 213.770 M122.954 212.776 C 123.440 212.870,124.143 212.866,124.516 212.768 C 124.890 212.671,124.492 212.594,123.633 212.599 C 122.773 212.603,122.468 212.683,122.954 212.776 M120.999 218.652 C 121.505 219.136,122.128 219.526,122.385 219.519 C 122.642 219.513,122.500 219.312,122.070 219.074 C 121.641 218.836,121.017 218.446,120.684 218.207 C 120.351 217.969,120.493 218.169,120.999 218.652 M129.204 219.808 C 129.690 219.901,130.393 219.897,130.766 219.800 C 131.140 219.702,130.742 219.625,129.883 219.630 C 129.023 219.634,128.718 219.714,129.204 219.808 M242.662 261.629 C 240.253 263.067,238.281 264.397,238.281 264.585 C 238.281 264.772,237.849 265.786,237.321 266.838 L 236.360 268.750 242.908 268.750 L 249.456 268.750 248.576 265.332 C 248.092 263.452,247.685 261.475,247.671 260.938 C 247.615 258.860,247.208 258.916,242.662 261.629 M157.074 267.633 L 156.264 270.032 158.658 269.781 C 159.975 269.644,162.169 269.531,163.534 269.531 L 166.016 269.531 166.016 268.164 C 166.016 267.412,165.947 266.797,165.863 266.797 C 165.780 266.797,164.002 266.445,161.914 266.016 C 159.826 265.586,158.065 265.234,158.001 265.234 C 157.937 265.234,157.520 266.314,157.074 267.633 M209.452 267.681 C 207.023 267.888,205.090 268.101,205.155 268.155 C 205.960 268.818,217.969 268.613,217.255 267.948 C 216.359 267.113,216.186 267.107,209.452 267.681 M194.336 275.391 C 194.003 276.035,193.818 276.563,193.925 276.563 C 194.033 276.563,194.393 276.035,194.727 275.391 C 195.060 274.746,195.245 274.219,195.137 274.219 C 195.030 274.219,194.669 274.746,194.336 275.391 M57.100 309.274 C 59.660 310.413,62.304 312.988,63.492 315.498 C 64.971 318.624,64.758 319.203,61.914 319.793 C 58.215 320.559,58.002 320.509,56.889 318.610 C 51.626 309.630,42.090 319.179,44.579 330.938 C 46.242 338.795,53.867 341.359,57.044 335.130 C 57.939 333.376,58.172 333.337,61.719 334.339 L 64.258 335.056 64.213 336.479 C 63.963 344.373,50.822 348.216,42.886 342.716 C 35.156 337.359,34.003 320.488,40.849 312.910 C 44.756 308.585,51.940 306.978,57.100 309.274 M205.253 309.543 C 217.228 315.402,217.407 337.896,205.526 343.916 C 196.526 348.477,186.472 343.308,183.987 332.843 C 180.185 316.835,192.525 303.316,205.253 309.543 M295.769 309.277 C 301.676 311.890,304.692 318.494,300.391 319.396 C 296.441 320.224,295.943 320.125,295.160 318.351 C 292.694 312.761,284.947 314.953,282.955 321.803 C 279.915 332.261,286.262 341.253,294.238 337.786 L 295.703 337.149 295.703 334.215 L 295.703 331.282 292.480 331.168 L 289.258 331.055 289.143 328.463 C 288.974 324.636,289.022 324.609,296.147 324.609 C 304.131 324.609,303.516 323.963,303.516 332.353 L 303.516 339.287 301.660 341.109 C 292.718 349.887,277.651 345.014,275.041 332.500 C 271.737 316.657,283.261 303.745,295.769 309.277 M327.750 308.830 C 331.616 309.978,334.628 312.781,335.943 316.455 C 336.681 318.517,336.343 318.931,333.492 319.456 C 329.824 320.132,329.457 320.079,328.925 318.796 C 326.368 312.622,318.700 314.630,316.586 322.026 C 313.603 332.467,319.799 341.267,327.647 337.734 L 329.297 336.991 329.297 334.136 L 329.297 331.282 326.074 331.168 L 322.852 331.055 322.735 328.383 C 322.568 324.537,322.436 324.609,329.657 324.609 C 337.335 324.609,336.719 323.926,336.719 332.447 C 336.719 340.936,335.878 342.327,329.388 344.571 C 319.949 347.835,310.844 342.668,308.767 332.869 C 305.476 317.342,315.152 305.089,327.750 308.830 M87.720 310.029 C 94.943 313.896,96.353 324.206,90.403 329.644 C 87.821 332.004,87.664 330.964,91.624 337.722 C 95.760 344.781,95.766 344.694,91.138 344.838 C 86.874 344.972,87.546 345.544,83.431 338.281 L 80.221 332.617 78.685 332.617 L 77.148 332.617 76.953 338.672 L 76.758 344.727 73.693 344.841 C 71.770 344.913,70.425 344.786,70.080 344.501 C 69.480 344.002,69.227 309.810,69.819 309.218 C 70.583 308.453,86.089 309.156,87.720 310.029 M104.038 309.863 C 104.334 310.347,105.694 313.511,107.058 316.895 C 108.423 320.278,109.634 323.045,109.750 323.043 C 109.866 323.041,111.199 319.921,112.712 316.109 L 115.463 309.180 119.318 309.067 C 121.439 309.005,123.326 309.107,123.513 309.294 C 123.706 309.487,121.564 314.403,118.567 320.649 L 113.281 331.663 113.281 338.055 C 113.281 345.384,113.541 344.922,109.421 344.922 C 105.786 344.922,105.859 345.074,105.859 337.518 L 105.859 331.052 100.610 320.333 C 97.723 314.437,95.448 309.472,95.555 309.299 C 96.071 308.464,103.481 308.957,104.038 309.863 M146.806 310.332 C 154.908 314.820,154.473 327.893,146.094 331.771 C 144.739 332.398,143.331 332.620,139.951 332.740 L 135.567 332.896 135.459 338.811 L 135.352 344.727 132.625 344.844 C 131.126 344.909,129.500 344.861,129.012 344.739 L 128.125 344.516 128.125 327.011 C 128.125 317.383,128.254 309.376,128.413 309.218 C 128.571 309.059,132.306 308.986,136.713 309.055 L 144.727 309.180 146.806 310.332 M181.404 309.602 C 181.822 310.694,181.656 314.672,181.172 315.156 C 180.865 315.463,179.246 315.625,176.489 315.625 L 172.275 315.625 172.173 330.176 L 172.070 344.727 168.555 344.727 L 165.039 344.727 164.844 330.273 L 164.648 315.820 160.569 315.708 C 158.326 315.646,156.261 315.405,155.980 315.172 C 155.453 314.735,155.258 310.770,155.706 309.602 C 156.066 308.663,181.043 308.663,181.404 309.602 M250.195 310.024 C 254.831 312.529,256.907 316.942,256.202 322.792 C 255.399 329.465,251.019 332.813,243.093 332.813 L 239.453 332.813 239.453 338.398 C 239.453 345.050,239.530 344.922,235.547 344.922 C 233.759 344.922,232.392 344.735,232.109 344.453 C 231.418 343.762,231.437 310.128,232.129 309.428 C 233.063 308.485,248.275 308.987,250.195 310.024 M269.054 326.172 C 269.186 346.894,269.560 344.922,265.500 344.922 C 260.952 344.922,261.328 346.530,261.328 327.102 C 261.328 306.981,260.891 308.927,265.379 309.068 L 268.945 309.180 269.054 326.172 M348.142 312.207 C 348.882 313.979,350.174 317.141,351.013 319.233 C 351.852 321.324,352.640 323.038,352.764 323.041 C 352.887 323.044,354.186 320.103,355.649 316.504 C 358.989 308.290,358.316 308.984,362.938 308.984 C 367.757 308.984,367.874 307.875,361.719 320.629 L 356.641 331.152 356.641 337.599 C 356.641 345.259,356.788 345.003,352.478 344.841 L 349.414 344.727 349.204 337.891 L 348.993 331.055 343.833 320.590 C 337.560 307.871,337.666 308.984,342.734 308.984 L 346.797 308.984 348.142 312.207 M196.485 315.673 C 190.193 318.182,189.338 333.397,195.268 337.321 C 200.158 340.558,205.205 337.057,206.247 329.705 C 207.560 320.448,202.554 313.253,196.485 315.673 M77.214 315.885 C 77.070 316.029,76.953 318.314,76.953 320.964 L 76.953 325.781 80.312 325.781 C 83.536 325.781,83.715 325.734,84.759 324.617 C 86.931 322.291,86.474 317.498,83.955 316.196 C 82.839 315.618,77.716 315.383,77.214 315.885 M135.547 320.666 L 135.547 325.708 137.404 325.963 C 142.506 326.665,145.486 324.025,144.718 319.482 C 144.237 316.631,142.702 315.625,138.837 315.625 L 135.547 315.625 135.547 320.666 M239.539 320.801 L 239.648 325.977 242.599 325.934 C 246.789 325.873,247.962 325.001,248.628 321.453 C 249.324 317.744,247.055 315.625,242.391 315.625 L 239.430 315.625 239.539 320.801 " stroke="none" fill="#f6ecdc" fill-rule="evenodd"></path><path id="path2" d="M176.284 76.758 C 176.287 77.832,176.362 78.225,176.452 77.631 C 176.542 77.038,176.540 76.159,176.447 75.678 C 176.354 75.198,176.281 75.684,176.284 76.758 M105.332 84.947 C 104.889 85.283,104.728 85.687,104.917 85.993 C 105.086 86.266,105.263 86.849,105.310 87.288 C 105.420 88.306,107.750 98.050,108.071 98.828 C 108.203 99.150,108.347 99.678,108.391 100.000 C 108.607 101.590,109.527 105.078,109.730 105.079 C 109.857 105.079,109.999 105.626,110.046 106.293 C 110.093 106.961,110.281 107.708,110.464 107.953 C 110.646 108.198,110.829 108.916,110.869 109.548 C 110.909 110.181,111.122 110.810,111.343 110.947 C 111.564 111.083,111.633 111.489,111.495 111.848 C 111.357 112.206,111.428 112.500,111.653 112.500 C 111.877 112.500,112.069 112.808,112.080 113.184 C 112.140 115.334,112.247 115.293,115.545 111.849 C 117.363 109.951,118.632 108.750,118.365 109.180 C 118.097 109.609,118.515 109.258,119.292 108.398 C 120.069 107.539,120.870 106.877,121.073 106.926 C 121.276 106.976,121.822 106.483,122.287 105.830 C 122.752 105.177,123.219 104.729,123.325 104.835 C 123.431 104.941,123.953 104.556,124.486 103.979 C 125.018 103.402,125.339 103.193,125.199 103.516 C 125.058 103.838,125.395 103.574,125.946 102.930 C 126.498 102.285,126.950 101.909,126.951 102.094 C 126.952 102.279,127.318 102.015,127.764 101.508 C 128.210 101.001,128.459 100.850,128.316 101.172 C 128.174 101.494,128.420 101.318,128.864 100.781 C 129.307 100.244,129.679 99.980,129.691 100.195 C 129.702 100.410,129.892 100.275,130.114 99.894 C 130.336 99.514,130.663 99.293,130.842 99.404 C 131.022 99.514,131.273 99.331,131.402 98.996 C 131.530 98.662,131.812 98.497,132.028 98.631 C 132.245 98.765,132.422 98.590,132.422 98.242 C 132.422 97.856,132.612 97.713,132.910 97.874 C 133.179 98.020,132.783 97.524,132.031 96.773 C 131.279 96.021,130.546 95.475,130.401 95.559 C 130.256 95.643,129.759 95.181,129.297 94.531 C 128.834 93.882,128.306 93.443,128.122 93.557 C 127.938 93.670,127.540 93.410,127.238 92.978 C 126.935 92.546,126.586 92.294,126.461 92.419 C 126.337 92.543,126.036 92.273,125.793 91.819 C 125.550 91.365,125.184 91.097,124.980 91.223 C 124.776 91.349,124.609 91.266,124.609 91.039 C 124.609 90.811,124.346 90.625,124.023 90.625 C 123.701 90.625,123.438 90.439,123.438 90.211 C 123.438 89.984,123.277 89.897,123.080 90.018 C 122.884 90.140,122.664 90.084,122.592 89.895 C 122.277 89.067,113.444 85.254,112.960 85.738 C 112.854 85.844,112.569 85.766,112.327 85.566 C 111.944 85.247,107.524 84.364,106.445 84.390 C 106.230 84.396,105.729 84.646,105.332 84.947 M176.731 92.231 C 176.574 92.484,175.917 92.576,175.146 92.450 C 174.351 92.322,173.828 92.399,173.828 92.646 C 173.828 92.903,173.317 92.960,172.461 92.799 C 171.531 92.625,171.094 92.689,171.094 93.000 C 171.094 93.299,170.690 93.376,169.922 93.223 C 169.192 93.077,168.750 93.149,168.750 93.415 C 168.750 93.659,168.333 93.761,167.773 93.654 C 167.236 93.552,166.797 93.640,166.797 93.850 C 166.797 94.060,166.357 94.148,165.820 94.045 C 165.283 93.942,164.844 94.029,164.844 94.237 C 164.844 94.449,164.400 94.505,163.834 94.363 C 163.109 94.181,162.906 94.240,163.111 94.573 C 163.318 94.907,163.109 94.963,162.363 94.776 C 161.719 94.615,161.328 94.677,161.328 94.941 C 161.328 95.187,161.001 95.261,160.547 95.117 C 160.079 94.969,159.766 95.047,159.766 95.313 C 159.766 95.587,159.449 95.655,158.935 95.492 C 158.324 95.298,158.186 95.359,158.411 95.723 C 158.633 96.083,158.487 96.157,157.874 95.997 C 157.410 95.875,157.031 95.947,157.031 96.157 C 157.031 96.366,156.680 96.425,156.250 96.289 C 155.812 96.150,155.469 96.219,155.469 96.446 C 155.469 96.668,155.205 96.749,154.883 96.626 C 154.560 96.502,154.297 96.614,154.297 96.875 C 154.297 97.143,154.033 97.248,153.691 97.117 C 153.311 96.971,153.183 97.044,153.349 97.312 C 153.526 97.598,153.338 97.652,152.783 97.476 C 152.272 97.314,151.953 97.382,151.953 97.653 C 151.953 97.895,151.777 97.984,151.563 97.852 C 151.348 97.719,151.172 97.815,151.172 98.066 C 151.172 98.316,150.908 98.420,150.586 98.296 C 150.264 98.173,150.000 98.252,150.000 98.473 C 150.000 98.694,149.824 98.766,149.609 98.633 C 149.395 98.500,149.219 98.596,149.219 98.847 C 149.219 99.097,148.955 99.201,148.633 99.077 C 148.311 98.954,148.047 99.052,148.047 99.296 C 148.047 99.540,147.938 99.631,147.805 99.498 C 147.672 99.365,147.298 99.521,146.973 99.846 C 146.649 100.170,146.134 100.340,145.828 100.222 C 145.475 100.087,145.374 100.175,145.552 100.461 C 145.738 100.764,145.615 100.831,145.181 100.665 C 144.824 100.527,144.531 100.596,144.531 100.817 C 144.531 101.037,144.355 101.109,144.141 100.977 C 143.926 100.844,143.750 100.932,143.750 101.172 C 143.750 101.412,143.574 101.500,143.359 101.367 C 143.145 101.234,142.969 101.307,142.969 101.529 C 142.969 102.036,140.811 103.180,140.479 102.849 C 140.345 102.714,140.234 102.839,140.234 103.125 C 140.234 103.411,140.132 103.543,140.006 103.418 C 139.880 103.292,139.485 103.440,139.127 103.746 C 138.769 104.053,138.345 104.302,138.184 104.300 C 138.022 104.298,137.533 104.655,137.095 105.092 C 136.658 105.530,136.149 105.795,135.964 105.681 C 135.780 105.567,135.524 105.747,135.395 106.082 C 135.267 106.416,135.003 106.592,134.809 106.472 C 134.615 106.353,134.352 106.528,134.223 106.863 C 134.095 107.198,133.813 107.362,133.597 107.228 C 133.380 107.095,133.203 107.159,133.203 107.372 C 133.203 107.585,132.644 108.157,131.961 108.644 C 131.260 109.143,130.857 109.282,131.036 108.964 C 131.210 108.653,130.790 109.014,130.103 109.766 C 129.415 110.518,128.976 110.869,129.126 110.547 C 129.277 110.225,128.837 110.576,128.150 111.328 C 127.462 112.080,127.033 112.432,127.197 112.109 C 127.361 111.787,126.557 112.490,125.412 113.672 C 124.267 114.854,123.574 115.459,123.872 115.018 C 124.170 114.576,123.623 115.071,122.656 116.117 C 121.689 117.163,120.012 118.842,118.929 119.849 C 117.845 120.856,117.318 121.436,117.757 121.137 C 118.196 120.839,117.588 121.532,116.406 122.678 C 115.225 123.823,114.521 124.626,114.844 124.463 C 115.166 124.299,114.814 124.728,114.063 125.415 C 113.311 126.103,112.959 126.517,113.281 126.336 C 113.604 126.154,113.281 126.747,112.565 127.652 C 111.849 128.556,111.091 129.297,110.882 129.297 C 110.672 129.297,110.610 129.474,110.744 129.690 C 110.878 129.907,110.713 130.189,110.379 130.317 C 110.044 130.446,109.868 130.709,109.988 130.903 C 110.108 131.097,109.932 131.361,109.597 131.489 C 109.263 131.617,109.079 131.869,109.190 132.048 C 109.301 132.227,109.080 132.555,108.700 132.777 C 108.319 132.998,108.144 133.185,108.311 133.191 C 108.767 133.209,107.464 135.547,106.998 135.547 C 106.776 135.547,106.703 135.723,106.836 135.938 C 106.969 136.152,106.881 136.328,106.641 136.328 C 106.400 136.328,106.313 136.504,106.445 136.719 C 106.578 136.934,106.501 137.109,106.273 137.109 C 106.046 137.109,105.859 137.373,105.859 137.695 C 105.859 138.018,105.689 138.281,105.481 138.281 C 105.273 138.281,105.199 138.531,105.316 138.837 C 105.433 139.143,105.208 139.714,104.815 140.107 C 104.423 140.499,104.082 140.996,104.059 141.211 C 103.957 142.153,103.394 143.359,103.056 143.359 C 102.854 143.359,102.797 143.535,102.930 143.750 C 103.062 143.965,102.975 144.141,102.734 144.141 C 102.494 144.141,102.406 144.316,102.539 144.531 C 102.672 144.746,102.600 144.922,102.379 144.922 C 102.158 144.922,102.090 145.214,102.227 145.572 C 102.394 146.006,102.326 146.129,102.024 145.942 C 101.728 145.760,101.652 145.873,101.804 146.269 C 101.932 146.603,101.832 146.875,101.581 146.875 C 101.331 146.875,101.234 147.051,101.367 147.266 C 101.500 147.480,101.412 147.656,101.172 147.656 C 100.932 147.656,100.836 147.820,100.960 148.020 C 101.083 148.220,101.003 148.496,100.781 148.633 C 100.559 148.770,100.479 149.046,100.603 149.246 C 100.726 149.446,100.647 149.609,100.426 149.609 C 100.205 149.609,100.126 149.873,100.249 150.195 C 100.373 150.518,100.285 150.781,100.054 150.781 C 99.823 150.781,99.735 151.045,99.859 151.367 C 99.982 151.689,99.895 151.953,99.663 151.953 C 99.432 151.953,99.344 152.217,99.468 152.539 C 99.592 152.861,99.488 153.125,99.237 153.125 C 98.987 153.125,98.891 153.301,99.023 153.516 C 99.156 153.730,99.067 153.906,98.825 153.906 C 98.563 153.906,98.485 154.222,98.633 154.688 C 98.772 155.126,98.703 155.469,98.476 155.469 C 98.254 155.469,98.173 155.732,98.296 156.055 C 98.420 156.377,98.332 156.641,98.101 156.641 C 97.870 156.641,97.782 156.904,97.906 157.227 C 98.029 157.549,97.917 157.813,97.656 157.813 C 97.374 157.813,97.283 158.076,97.432 158.465 C 97.570 158.824,97.458 159.260,97.181 159.435 C 96.776 159.693,96.778 159.755,97.191 159.760 C 97.472 159.763,97.604 159.925,97.483 160.120 C 97.363 160.315,97.644 160.375,98.107 160.254 C 98.740 160.088,98.870 160.163,98.630 160.552 C 98.398 160.927,98.486 161.003,98.947 160.826 C 99.297 160.691,99.690 160.752,99.819 160.961 C 99.948 161.170,100.218 161.240,100.418 161.116 C 100.618 160.993,100.781 161.088,100.781 161.328 C 100.781 161.568,100.944 161.664,101.143 161.542 C 101.593 161.263,103.516 162.109,103.516 162.586 C 103.516 162.779,103.691 162.828,103.906 162.695 C 104.121 162.563,104.297 162.640,104.297 162.868 C 104.297 163.095,104.630 163.281,105.037 163.281 C 105.444 163.281,106.331 163.799,107.009 164.433 C 107.687 165.066,108.277 165.582,108.320 165.579 C 108.829 165.549,109.709 166.182,109.539 166.457 C 109.417 166.655,109.468 166.768,109.654 166.709 C 110.048 166.583,117.299 173.847,117.038 174.107 C 116.941 174.204,117.205 174.627,117.625 175.047 C 118.045 175.466,118.283 175.979,118.155 176.186 C 118.027 176.393,118.119 176.563,118.359 176.563 C 118.600 176.563,118.687 176.738,118.555 176.953 C 118.422 177.168,118.510 177.344,118.750 177.344 C 118.990 177.344,119.078 177.520,118.945 177.734 C 118.813 177.949,118.900 178.125,119.141 178.125 C 119.381 178.125,119.469 178.301,119.336 178.516 C 119.203 178.730,119.299 178.906,119.550 178.906 C 119.800 178.906,119.904 179.170,119.781 179.492 C 119.657 179.814,119.736 180.078,119.957 180.078 C 120.178 180.078,120.250 180.254,120.117 180.469 C 119.984 180.684,120.081 180.859,120.331 180.859 C 120.582 180.859,120.686 181.123,120.562 181.445 C 120.438 181.768,120.519 182.031,120.742 182.031 C 120.969 182.031,121.037 182.374,120.898 182.813 C 120.747 183.291,120.828 183.594,121.109 183.594 C 121.362 183.594,121.467 183.857,121.343 184.180 C 121.219 184.502,121.309 184.766,121.542 184.766 C 121.784 184.766,121.886 185.186,121.779 185.742 C 121.677 186.279,121.764 186.719,121.973 186.719 C 122.194 186.719,122.248 187.278,122.102 188.055 C 121.956 188.831,122.020 189.497,122.254 189.641 C 122.484 189.784,122.656 191.475,122.656 193.601 C 122.656 196.276,122.532 197.235,122.212 197.037 C 121.893 196.840,121.843 197.166,122.034 198.186 C 122.211 199.131,122.155 199.609,121.866 199.609 C 121.616 199.609,121.532 199.926,121.669 200.358 C 121.800 200.769,121.740 201.209,121.537 201.335 C 121.334 201.460,121.266 201.942,121.387 202.405 C 121.548 203.018,121.473 203.164,121.113 202.942 C 120.745 202.714,120.691 202.861,120.898 203.516 C 121.107 204.174,121.052 204.317,120.679 204.086 C 120.324 203.867,120.252 203.966,120.429 204.428 C 120.566 204.786,120.514 205.078,120.313 205.078 C 120.111 205.078,120.039 205.319,120.152 205.614 C 120.265 205.908,120.128 206.396,119.847 206.697 C 119.566 206.999,119.282 207.505,119.217 207.822 C 119.151 208.139,118.810 208.618,118.459 208.887 C 118.107 209.155,117.985 209.381,118.187 209.387 C 118.389 209.394,118.274 209.614,117.930 209.876 C 117.586 210.137,117.268 210.473,117.223 210.621 C 117.177 210.770,115.978 212.077,114.557 213.526 C 113.136 214.975,112.105 215.908,112.266 215.600 C 112.426 215.291,112.269 215.391,111.915 215.820 C 111.562 216.250,111.110 216.558,110.910 216.504 C 110.710 216.450,110.547 216.592,110.547 216.820 C 110.547 217.047,110.390 217.136,110.197 217.017 C 110.005 216.899,109.742 217.075,109.614 217.410 C 109.486 217.744,109.203 217.909,108.987 217.775 C 108.771 217.641,108.594 217.729,108.594 217.969 C 108.594 218.209,108.418 218.297,108.203 218.164 C 107.988 218.031,107.813 218.119,107.813 218.359 C 107.813 218.600,107.637 218.687,107.422 218.555 C 107.207 218.422,107.031 218.510,107.031 218.750 C 107.031 218.990,106.855 219.078,106.641 218.945 C 106.426 218.813,106.250 218.868,106.250 219.069 C 106.250 219.269,105.797 219.434,105.244 219.434 C 100.005 219.434,114.956 234.980,129.424 244.576 C 139.430 251.212,158.625 258.984,165.011 258.984 C 165.134 258.984,165.237 258.413,165.240 257.715 C 165.253 255.102,167.355 254.047,169.835 255.410 C 170.325 255.679,170.629 256.053,170.512 256.243 C 170.395 256.432,170.486 256.701,170.713 256.842 C 170.940 256.982,171.019 257.434,170.888 257.845 C 170.748 258.286,170.835 258.594,171.098 258.594 C 171.393 258.594,171.458 258.995,171.289 259.766 C 171.116 260.554,171.183 260.938,171.496 260.938 C 171.796 260.938,171.873 261.283,171.715 261.914 C 171.562 262.523,171.635 262.891,171.910 262.891 C 172.182 262.891,172.259 263.255,172.111 263.843 C 171.980 264.367,172.056 264.909,172.280 265.048 C 172.504 265.187,172.581 265.637,172.451 266.048 C 172.308 266.496,172.397 266.797,172.672 266.797 C 172.967 266.797,173.044 267.147,172.886 267.773 C 172.738 268.366,172.808 268.750,173.066 268.750 C 173.312 268.750,173.386 269.077,173.242 269.531 C 173.094 269.999,173.172 270.313,173.438 270.313 C 173.703 270.312,173.781 270.626,173.633 271.094 C 173.481 271.572,173.563 271.875,173.844 271.875 C 174.096 271.875,174.201 272.139,174.077 272.461 C 173.954 272.783,174.043 273.047,174.277 273.047 C 174.510 273.047,174.609 273.398,174.496 273.828 C 174.384 274.258,174.470 274.609,174.688 274.609 C 174.905 274.609,174.982 274.873,174.859 275.195 C 174.735 275.518,174.804 275.781,175.012 275.781 C 175.220 275.781,175.347 275.916,175.293 276.082 C 175.239 276.247,175.617 276.818,176.132 277.351 C 176.647 277.884,176.941 278.057,176.786 277.734 C 176.610 277.367,176.712 277.401,177.060 277.826 C 177.366 278.199,177.731 278.389,177.871 278.249 C 178.011 278.109,178.125 278.210,178.125 278.474 C 178.125 278.737,178.301 278.844,178.516 278.711 C 178.730 278.578,178.906 278.650,178.906 278.871 C 178.906 279.092,179.170 279.171,179.492 279.048 C 179.814 278.924,180.078 279.029,180.078 279.281 C 180.078 279.556,180.379 279.645,180.827 279.503 C 181.238 279.372,181.671 279.420,181.787 279.609 C 182.066 280.060,188.209 280.120,188.485 279.674 C 188.601 279.486,188.937 279.423,189.231 279.536 C 189.524 279.649,189.883 279.550,190.027 279.317 C 190.171 279.084,190.452 278.995,190.652 279.118 C 190.852 279.242,191.016 279.128,191.016 278.864 C 191.016 278.601,191.130 278.500,191.270 278.640 C 191.410 278.780,191.774 278.589,192.080 278.217 C 192.424 277.798,192.526 277.763,192.349 278.125 C 192.191 278.447,192.522 278.292,193.084 277.780 C 193.646 277.268,194.093 276.741,194.077 276.608 C 193.985 275.844,194.191 275.375,194.527 275.583 C 194.739 275.714,194.819 275.577,194.704 275.278 C 194.590 274.979,194.765 274.511,195.095 274.237 C 195.425 273.963,195.606 273.596,195.497 273.420 C 195.389 273.245,195.471 272.995,195.680 272.866 C 195.889 272.737,195.961 272.373,195.840 272.058 C 195.719 271.742,195.809 271.484,196.040 271.484 C 196.271 271.484,196.359 271.221,196.235 270.898 C 196.111 270.576,196.217 270.313,196.469 270.313 C 196.750 270.313,196.832 270.010,196.680 269.531 C 196.543 269.102,196.603 268.750,196.812 268.750 C 197.021 268.750,197.101 268.398,196.988 267.969 C 196.876 267.539,196.975 267.188,197.208 267.188 C 197.441 267.188,197.531 266.924,197.407 266.602 C 197.283 266.279,197.380 266.016,197.622 266.016 C 197.903 266.016,197.968 265.641,197.802 264.981 C 197.608 264.207,197.666 264.022,198.032 264.248 C 198.390 264.470,198.451 264.329,198.258 263.721 C 198.095 263.207,198.163 262.891,198.438 262.891 C 198.703 262.891,198.781 262.577,198.633 262.109 C 198.481 261.631,198.563 261.328,198.844 261.328 C 199.096 261.328,199.203 261.070,199.082 260.755 C 198.961 260.439,199.037 260.073,199.252 259.941 C 199.466 259.808,199.534 259.363,199.404 258.952 C 199.262 258.504,199.351 258.203,199.625 258.203 C 199.893 258.203,199.980 257.932,199.833 257.551 C 199.695 257.190,199.807 256.760,200.084 256.588 C 200.360 256.418,200.586 256.052,200.586 255.776 C 200.586 255.500,200.762 255.265,200.977 255.254 C 201.191 255.244,201.776 255.096,202.275 254.926 C 204.505 254.166,206.010 255.770,205.800 258.682 L 205.682 260.315 207.821 260.218 C 220.723 259.632,242.534 253.675,251.215 248.367 C 255.968 245.461,259.705 249.815,255.988 253.929 L 254.554 255.516 255.212 259.227 C 256.895 268.725,259.282 271.663,265.711 272.148 C 276.462 272.958,278.869 268.160,282.649 238.370 L 283.307 233.185 285.793 229.889 C 292.722 220.702,297.092 212.051,299.958 201.844 C 301.416 196.652,302.765 189.846,302.554 188.750 C 302.463 188.277,302.574 187.891,302.801 187.891 C 303.069 187.891,303.121 187.273,302.950 186.133 C 302.784 185.027,302.834 184.375,303.085 184.375 C 303.339 184.375,303.417 183.075,303.300 180.762 C 303.175 178.291,303.241 177.334,303.506 177.734 C 303.805 178.185,303.896 178.033,303.900 177.074 C 303.904 176.388,303.707 175.704,303.463 175.554 C 303.157 175.364,303.092 174.159,303.252 171.638 C 303.406 169.224,303.343 167.908,303.065 167.736 C 302.821 167.586,302.730 166.841,302.848 165.965 C 302.970 165.052,302.890 164.453,302.646 164.453 C 302.402 164.453,302.329 163.911,302.463 163.086 C 302.600 162.242,302.526 161.719,302.270 161.719 C 302.016 161.719,301.948 161.257,302.094 160.527 C 302.260 159.694,302.199 159.418,301.891 159.609 C 301.589 159.796,301.512 159.552,301.649 158.838 C 301.759 158.264,301.684 157.692,301.483 157.568 C 301.283 157.444,301.211 157.103,301.323 156.809 C 301.436 156.515,301.348 156.164,301.128 156.028 C 300.908 155.892,300.822 155.534,300.938 155.234 C 301.053 154.933,300.965 154.687,300.743 154.688 C 300.516 154.688,300.447 154.344,300.586 153.906 C 300.738 153.428,300.656 153.125,300.375 153.125 C 300.123 153.125,300.018 152.861,300.141 152.539 C 300.265 152.217,300.177 151.953,299.946 151.953 C 299.715 151.953,299.627 151.689,299.751 151.367 C 299.874 151.045,299.786 150.781,299.555 150.781 C 299.324 150.781,299.236 150.518,299.360 150.195 C 299.484 149.873,299.396 149.609,299.165 149.609 C 298.934 149.609,298.846 149.346,298.969 149.023 C 299.093 148.701,299.005 148.438,298.774 148.438 C 298.543 148.438,298.455 148.174,298.579 147.852 C 298.702 147.529,298.623 147.266,298.402 147.266 C 298.181 147.266,298.109 147.090,298.242 146.875 C 298.375 146.660,298.283 146.484,298.037 146.484 C 297.792 146.484,297.664 146.266,297.753 146.000 C 297.842 145.733,297.670 145.271,297.372 144.973 C 297.074 144.674,296.923 144.190,297.036 143.895 C 297.149 143.600,297.060 143.359,296.840 143.359 C 296.619 143.359,296.547 143.184,296.680 142.969 C 296.812 142.754,296.725 142.578,296.484 142.578 C 296.244 142.578,296.156 142.402,296.289 142.187 C 296.422 141.973,296.334 141.797,296.094 141.797 C 295.854 141.797,295.766 141.621,295.898 141.406 C 296.031 141.191,295.924 141.016,295.661 141.016 C 295.398 141.016,295.291 140.907,295.424 140.774 C 295.557 140.641,295.409 140.275,295.095 139.961 C 294.781 139.647,294.624 139.229,294.746 139.031 C 294.868 138.833,294.771 138.672,294.531 138.672 C 294.291 138.672,294.203 138.496,294.336 138.281 C 294.469 138.066,294.381 137.891,294.141 137.891 C 293.900 137.891,293.813 137.715,293.945 137.500 C 294.078 137.285,293.990 137.109,293.750 137.109 C 293.510 137.109,293.411 136.952,293.529 136.760 C 293.648 136.567,293.472 136.305,293.137 136.177 C 292.802 136.048,292.638 135.766,292.772 135.550 C 292.905 135.333,292.799 135.156,292.536 135.156 C 292.273 135.156,292.160 135.054,292.285 134.928 C 292.410 134.803,292.170 134.357,291.750 133.938 C 291.330 133.518,291.109 132.978,291.257 132.738 C 291.421 132.472,291.350 132.410,291.076 132.580 C 290.681 132.824,290.450 132.350,290.723 131.853 C 290.776 131.755,290.469 131.409,290.039 131.084 C 289.609 130.759,289.372 130.488,289.512 130.481 C 289.652 130.474,289.251 129.917,288.622 129.243 C 287.992 128.569,287.559 127.936,287.659 127.836 C 287.759 127.736,287.369 127.218,286.791 126.686 C 286.214 126.154,286.006 125.837,286.328 125.982 C 286.650 126.127,286.166 125.598,285.252 124.807 C 284.338 124.016,283.677 123.229,283.783 123.057 C 283.889 122.885,283.670 122.505,283.296 122.212 C 282.674 121.724,282.662 121.745,283.152 122.461 C 283.446 122.891,282.919 122.369,281.980 121.301 C 279.714 118.724,278.178 117.145,278.906 118.142 C 279.229 118.583,278.525 118.078,277.344 117.019 C 274.625 114.581,274.705 114.660,275.353 115.037 C 275.725 115.253,275.811 115.208,275.619 114.898 C 275.464 114.646,275.197 114.527,275.027 114.632 C 274.857 114.737,273.990 114.152,273.101 113.331 C 272.212 112.510,271.479 111.944,271.471 112.072 C 271.464 112.200,271.113 111.890,270.690 111.383 C 270.268 110.875,269.916 110.612,269.909 110.797 C 269.903 110.982,269.631 110.781,269.307 110.352 C 268.982 109.922,268.592 109.592,268.440 109.618 C 267.862 109.719,267.201 109.278,267.414 108.934 C 267.536 108.736,267.491 108.600,267.314 108.630 C 266.482 108.775,265.995 108.552,266.248 108.143 C 266.418 107.869,266.356 107.798,266.090 107.962 C 265.850 108.110,265.296 107.874,264.858 107.436 C 264.420 106.999,264.063 106.733,264.063 106.846 C 264.063 106.959,263.535 106.779,262.891 106.445 C 262.246 106.112,261.719 105.639,261.719 105.394 C 261.719 105.148,261.609 105.058,261.474 105.193 C 261.143 105.524,258.984 104.380,258.984 103.873 C 258.984 103.651,258.809 103.578,258.594 103.711 C 258.379 103.844,258.203 103.772,258.203 103.551 C 258.203 103.330,257.941 103.250,257.620 103.373 C 257.288 103.501,256.935 103.328,256.798 102.972 C 256.667 102.629,256.401 102.445,256.209 102.564 C 256.017 102.683,255.859 102.624,255.859 102.432 C 255.859 102.240,255.552 102.107,255.176 102.136 C 254.411 102.196,252.708 103.093,253.320 103.115 C 253.535 103.123,253.184 103.580,252.539 104.132 C 251.895 104.683,251.631 105.022,251.953 104.884 C 252.275 104.746,251.880 105.236,251.074 105.972 C 250.269 106.707,249.612 107.467,249.615 107.659 C 249.619 107.851,249.785 107.749,249.985 107.433 C 250.297 106.940,250.385 106.954,250.606 107.528 C 250.747 107.897,251.020 108.101,251.213 107.983 C 251.405 107.864,251.563 107.947,251.563 108.168 C 251.563 108.389,251.817 108.472,252.128 108.352 C 252.705 108.131,255.750 110.843,255.566 111.415 C 255.513 111.582,255.663 111.719,255.901 111.719 C 256.139 111.719,256.235 111.977,256.114 112.292 C 255.993 112.608,256.062 112.969,256.267 113.096 C 256.775 113.411,256.742 114.844,256.227 114.844 C 255.999 114.844,255.930 115.033,256.073 115.264 C 256.606 116.126,254.653 117.329,252.674 117.358 C 251.633 117.373,250.781 117.258,250.781 117.103 C 250.781 116.948,250.518 116.923,250.195 117.046 C 249.873 117.170,249.609 117.082,249.609 116.851 C 249.609 116.620,249.346 116.532,249.023 116.656 C 248.701 116.779,248.438 116.674,248.438 116.422 C 248.438 116.141,248.135 116.059,247.656 116.211 C 247.218 116.350,246.875 116.281,246.875 116.054 C 246.875 115.832,246.611 115.751,246.289 115.874 C 245.967 115.998,245.703 115.893,245.703 115.640 C 245.703 115.359,245.400 115.278,244.922 115.430 C 244.484 115.569,244.141 115.500,244.141 115.273 C 244.141 115.050,243.895 114.963,243.594 115.078 C 243.294 115.193,242.942 115.116,242.813 114.907 C 242.683 114.698,242.226 114.618,241.796 114.731 C 241.367 114.843,241.016 114.743,241.016 114.508 C 241.016 114.238,240.564 114.172,239.783 114.329 C 238.910 114.503,238.631 114.445,238.826 114.129 C 239.020 113.815,238.750 113.754,237.910 113.922 C 237.180 114.068,236.719 113.999,236.719 113.745 C 236.719 113.486,236.183 113.417,235.291 113.562 C 234.199 113.739,233.935 113.678,234.168 113.300 C 234.399 112.926,234.188 112.870,233.289 113.067 C 232.583 113.222,232.000 113.156,231.844 112.904 C 231.677 112.634,230.885 112.573,229.659 112.736 C 228.367 112.907,227.734 112.850,227.734 112.563 C 227.734 112.267,226.764 112.209,224.609 112.375 C 222.378 112.547,221.484 112.488,221.484 112.167 C 221.484 111.876,220.596 111.719,218.945 111.719 C 217.419 111.719,216.406 111.884,216.406 112.132 C 216.406 112.360,216.232 112.439,216.020 112.307 C 215.799 112.171,215.733 112.327,215.867 112.675 C 215.995 113.008,216.268 113.281,216.474 113.281 C 216.681 113.281,216.738 113.633,216.602 114.063 C 216.450 114.541,216.531 114.844,216.812 114.844 C 217.065 114.844,217.172 115.102,217.051 115.417 C 216.930 115.733,217.006 116.099,217.220 116.231 C 217.435 116.364,217.503 116.809,217.372 117.220 C 217.230 117.668,217.319 117.969,217.594 117.969 C 217.889 117.969,217.966 118.318,217.808 118.945 C 217.657 119.546,217.729 119.922,217.996 119.922 C 218.284 119.922,218.340 120.443,218.164 121.484 C 217.991 122.512,218.046 123.047,218.325 123.047 C 218.600 123.047,218.750 124.290,218.750 126.563 C 218.750 128.885,218.602 130.078,218.315 130.078 C 218.021 130.078,217.965 130.647,218.144 131.836 C 218.312 132.958,218.261 133.594,218.002 133.594 C 217.761 133.594,217.692 134.067,217.832 134.766 C 217.966 135.434,217.901 135.938,217.681 135.938 C 217.469 135.938,217.385 136.403,217.494 136.972 C 217.639 137.734,217.562 137.927,217.202 137.704 C 216.844 137.483,216.784 137.625,216.977 138.232 C 217.130 138.714,217.070 139.063,216.835 139.063 C 216.613 139.063,216.532 139.326,216.656 139.648 C 216.779 139.971,216.708 140.234,216.497 140.234 C 216.286 140.234,216.113 140.710,216.113 141.292 C 216.113 141.874,215.925 142.413,215.696 142.489 C 215.466 142.566,215.366 142.858,215.474 143.139 C 215.582 143.420,215.405 143.915,215.080 144.239 C 214.756 144.563,214.583 144.921,214.696 145.034 C 214.999 145.338,213.719 147.656,213.248 147.656 C 213.026 147.656,212.953 147.832,213.086 148.047 C 213.219 148.262,213.131 148.438,212.891 148.438 C 212.650 148.438,212.559 148.607,212.687 148.814 C 212.814 149.021,212.605 149.519,212.221 149.921 C 211.837 150.322,211.472 150.900,211.409 151.204 C 211.346 151.509,210.931 152.065,210.487 152.441 C 210.043 152.817,209.830 153.131,210.015 153.138 C 210.200 153.145,209.964 153.475,209.489 153.871 C 209.015 154.267,208.707 154.670,208.804 154.768 C 208.902 154.865,208.543 155.357,208.006 155.861 C 207.470 156.365,207.031 156.625,207.031 156.439 C 207.031 156.253,206.755 156.442,206.416 156.859 C 206.078 157.276,205.928 157.354,206.083 157.031 C 206.312 156.556,206.265 156.537,205.839 156.934 C 205.198 157.528,203.516 157.582,203.516 157.008 C 203.516 156.781,203.340 156.703,203.125 156.836 C 202.910 156.969,202.734 156.881,202.734 156.641 C 202.734 156.400,202.579 156.300,202.388 156.418 C 201.958 156.684,201.082 155.688,201.436 155.335 C 201.577 155.194,201.493 155.078,201.249 155.078 C 201.005 155.078,200.907 154.814,201.031 154.492 C 201.154 154.170,201.090 153.906,200.888 153.906 C 200.686 153.906,200.521 153.650,200.521 153.337 C 200.521 153.025,200.697 152.878,200.913 153.011 C 201.155 153.161,201.197 152.974,201.024 152.522 C 200.826 152.006,201.008 151.573,201.641 151.056 C 202.135 150.653,202.275 150.439,201.953 150.582 C 201.631 150.724,201.755 150.498,202.229 150.078 C 202.704 149.659,202.986 149.210,202.857 149.081 C 202.728 148.952,202.910 148.736,203.262 148.601 C 203.614 148.466,203.808 148.205,203.694 148.020 C 203.580 147.836,203.830 147.341,204.250 146.922 C 204.670 146.502,204.910 146.056,204.785 145.931 C 204.660 145.806,204.773 145.703,205.036 145.703 C 205.299 145.703,205.406 145.527,205.273 145.313 C 205.141 145.098,205.229 144.922,205.469 144.922 C 205.709 144.922,205.797 144.746,205.664 144.531 C 205.531 144.316,205.619 144.141,205.859 144.141 C 206.100 144.141,206.187 143.965,206.055 143.750 C 205.922 143.535,206.010 143.359,206.250 143.359 C 206.490 143.359,206.578 143.184,206.445 142.969 C 206.313 142.754,206.385 142.578,206.605 142.578 C 206.826 142.578,206.906 142.314,206.782 141.992 C 206.658 141.670,206.746 141.406,206.977 141.406 C 207.208 141.406,207.296 141.143,207.173 140.820 C 207.049 140.498,207.153 140.234,207.403 140.234 C 207.654 140.234,207.757 140.071,207.634 139.871 C 207.510 139.671,207.580 139.401,207.789 139.272 C 207.998 139.143,208.070 138.779,207.949 138.464 C 207.828 138.149,207.918 137.891,208.149 137.891 C 208.380 137.891,208.468 137.627,208.344 137.305 C 208.221 136.982,208.298 136.719,208.515 136.719 C 208.733 136.719,208.819 136.367,208.707 135.938 C 208.595 135.508,208.682 135.156,208.902 135.156 C 209.122 135.156,209.210 134.805,209.098 134.375 C 208.985 133.945,209.078 133.594,209.305 133.594 C 209.560 133.594,209.629 133.053,209.485 132.166 C 209.328 131.198,209.388 130.821,209.672 130.997 C 209.962 131.176,210.046 130.318,209.945 128.226 C 209.843 126.134,209.912 125.437,210.165 125.977 C 210.467 126.617,210.521 126.511,210.463 125.391 C 210.424 124.639,210.229 123.802,210.029 123.532 C 209.826 123.258,209.784 121.992,209.934 120.663 C 210.141 118.841,210.092 118.353,209.728 118.578 C 209.376 118.795,209.317 118.552,209.500 117.639 C 209.635 116.961,209.594 116.406,209.408 116.406 C 209.221 116.406,208.969 116.011,208.847 115.527 C 208.631 114.673,208.486 114.648,203.568 114.648 C 200.646 114.648,198.604 114.798,198.731 115.002 C 198.855 115.204,198.419 115.250,197.717 115.110 C 196.941 114.955,196.484 115.020,196.484 115.286 C 196.484 115.518,196.232 115.612,195.924 115.493 C 195.615 115.375,195.302 115.460,195.228 115.683 C 195.154 115.906,194.615 116.115,194.031 116.149 C 193.447 116.183,192.969 116.353,192.969 116.527 C 192.969 116.701,192.793 116.734,192.578 116.602 C 192.363 116.469,192.188 116.534,192.188 116.747 C 192.188 117.136,190.686 117.801,190.137 117.656 C 189.976 117.613,189.844 117.764,189.844 117.992 C 189.844 118.219,189.668 118.297,189.453 118.164 C 189.238 118.031,189.063 118.089,189.063 118.291 C 189.063 118.494,188.601 118.962,188.038 119.332 C 187.344 119.786,187.106 119.832,187.299 119.474 C 187.457 119.183,187.114 119.473,186.538 120.117 C 185.962 120.762,185.614 121.025,185.765 120.703 C 185.917 120.381,185.478 120.732,184.790 121.484 C 184.103 122.236,183.658 122.588,183.802 122.266 C 183.946 121.943,183.592 122.253,183.016 122.953 C 182.421 123.676,181.771 124.113,181.512 123.965 C 181.260 123.821,181.185 123.847,181.345 124.023 C 181.706 124.421,180.210 125.518,179.720 125.216 C 179.524 125.094,179.294 125.204,179.209 125.458 C 179.108 125.761,178.792 125.808,178.297 125.594 C 177.880 125.414,177.383 125.303,177.193 125.346 C 176.610 125.481,174.964 123.703,175.172 123.163 C 175.279 122.884,175.196 122.656,174.988 122.656 C 174.780 122.656,174.609 122.305,174.609 121.875 C 174.609 121.445,174.800 121.094,175.033 121.094 C 175.265 121.094,175.385 120.882,175.299 120.623 C 175.213 120.365,175.594 119.727,176.145 119.207 C 176.710 118.675,176.807 118.488,176.367 118.779 C 175.938 119.064,176.370 118.471,177.327 117.461 C 179.131 115.559,179.974 114.963,178.680 116.504 C 178.274 116.987,178.510 116.867,179.205 116.236 C 180.686 114.891,180.750 114.468,179.658 113.227 C 179.212 112.720,178.962 112.568,179.103 112.891 C 179.244 113.213,178.906 112.983,178.352 112.381 C 177.797 111.778,177.338 111.426,177.331 111.599 C 177.324 111.772,177.053 111.563,176.729 111.133 C 176.404 110.703,176.102 110.421,176.057 110.507 C 176.013 110.592,175.579 110.535,175.092 110.381 C 174.605 110.226,174.307 109.939,174.429 109.742 C 174.551 109.545,174.349 109.499,173.980 109.641 C 173.528 109.815,173.401 109.751,173.589 109.446 C 173.772 109.150,173.659 109.074,173.262 109.226 C 172.928 109.354,172.656 109.254,172.656 109.003 C 172.656 108.753,172.480 108.656,172.266 108.789 C 172.051 108.922,171.875 108.826,171.875 108.575 C 171.875 108.325,171.611 108.221,171.289 108.344 C 170.967 108.468,170.703 108.380,170.703 108.149 C 170.703 107.918,170.445 107.828,170.130 107.949 C 169.814 108.070,169.451 107.998,169.321 107.789 C 169.192 107.580,168.935 107.503,168.750 107.617 C 168.565 107.732,168.286 107.619,168.131 107.368 C 167.943 107.065,168.033 107.006,168.397 107.195 C 168.698 107.352,168.604 107.203,168.187 106.865 C 167.770 106.527,167.594 106.247,167.796 106.244 C 167.999 106.241,167.928 106.089,167.640 105.906 C 167.255 105.662,167.222 105.377,167.514 104.838 C 167.733 104.433,168.011 103.783,168.133 103.393 C 168.254 103.004,168.531 102.794,168.747 102.928 C 168.964 103.062,169.141 102.975,169.141 102.734 C 169.141 102.494,169.324 102.411,169.548 102.550 C 169.773 102.688,170.190 102.608,170.475 102.371 C 170.761 102.134,171.281 102.049,171.630 102.183 C 172.004 102.327,172.266 102.230,172.266 101.949 C 172.266 101.664,172.580 101.554,173.047 101.676 C 173.477 101.788,173.828 101.700,173.828 101.480 C 173.828 101.261,174.180 101.173,174.609 101.285 C 175.038 101.397,175.493 101.323,175.618 101.119 C 175.744 100.916,176.206 100.863,176.644 101.003 C 177.176 101.171,177.353 101.111,177.174 100.823 C 176.934 100.434,177.884 100.222,179.590 100.286 C 179.858 100.296,180.078 100.129,180.078 99.915 C 180.078 99.701,180.342 99.627,180.664 99.751 C 180.986 99.874,181.250 99.805,181.250 99.597 C 181.250 99.389,181.514 99.219,181.836 99.219 C 182.288 99.219,182.240 99.037,181.626 98.423 C 181.189 97.986,180.936 97.458,181.063 97.251 C 181.191 97.044,181.100 96.875,180.859 96.875 C 180.619 96.875,180.531 96.699,180.664 96.484 C 180.797 96.270,180.690 96.094,180.427 96.094 C 180.163 96.094,180.057 95.985,180.190 95.852 C 180.323 95.719,180.166 95.345,179.842 95.020 C 179.517 94.696,179.344 94.190,179.457 93.895 C 179.570 93.600,179.463 93.359,179.220 93.359 C 178.976 93.359,178.890 93.245,179.030 93.105 C 179.328 92.807,178.144 91.827,177.464 91.809 C 177.209 91.802,176.879 91.992,176.731 92.231 M114.453 145.469 C 114.453 145.669,114.547 145.739,114.662 145.624 C 114.996 145.290,117.271 147.595,117.016 148.009 C 116.888 148.215,116.963 148.494,117.181 148.629 C 117.673 148.933,117.712 152.344,117.224 152.344 C 117.029 152.344,116.962 152.695,117.074 153.125 C 117.193 153.579,117.086 153.906,116.819 153.906 C 116.567 153.906,116.469 154.082,116.602 154.297 C 116.734 154.512,116.646 154.688,116.406 154.688 C 116.166 154.688,116.078 154.863,116.211 155.078 C 116.344 155.293,116.266 155.469,116.039 155.469 C 115.811 155.469,115.669 155.632,115.723 155.832 C 115.776 156.031,115.469 156.484,115.039 156.837 C 114.609 157.191,114.478 157.369,114.746 157.232 C 115.490 156.855,115.330 157.217,114.386 158.045 C 113.819 158.543,113.634 158.595,113.829 158.203 C 114.007 157.845,113.904 157.881,113.565 158.295 C 113.259 158.667,112.894 158.858,112.754 158.718 C 112.614 158.578,112.500 158.634,112.500 158.842 C 112.500 159.050,111.885 159.238,111.133 159.259 C 110.381 159.280,109.766 159.110,109.766 158.881 C 109.766 158.651,109.669 158.560,109.550 158.679 C 109.268 158.962,107.147 156.923,107.328 156.543 C 107.405 156.382,107.278 156.250,107.047 156.250 C 106.793 156.250,106.723 155.863,106.871 155.273 C 107.022 154.672,106.950 154.297,106.683 154.297 C 106.445 154.297,106.250 154.033,106.250 153.711 C 106.250 153.389,106.429 153.125,106.648 153.125 C 106.878 153.125,106.942 152.712,106.801 152.148 C 106.640 151.508,106.719 151.172,107.031 151.172 C 107.292 151.172,107.404 150.909,107.281 150.586 C 107.157 150.264,107.221 150.000,107.422 150.000 C 107.623 150.000,107.694 149.755,107.579 149.455 C 107.368 148.905,110.477 145.452,111.035 145.617 C 111.196 145.664,111.328 145.550,111.328 145.363 C 111.328 145.175,112.031 145.040,112.891 145.063 C 113.750 145.086,114.453 145.268,114.453 145.469 M155.078 155.953 C 155.078 156.116,155.210 156.229,155.371 156.204 C 156.076 156.092,156.749 156.272,156.513 156.508 C 156.371 156.650,156.617 157.020,157.060 157.330 C 157.503 157.640,157.771 158.139,157.656 158.439 C 157.541 158.739,157.611 158.984,157.813 158.984 C 158.014 158.984,158.077 159.248,157.954 159.570 C 157.830 159.893,157.887 160.156,158.080 160.156 C 158.273 160.156,158.442 161.381,158.456 162.879 C 158.471 164.530,158.333 165.510,158.105 165.369 C 157.881 165.230,157.835 165.472,157.992 165.967 C 158.145 166.449,158.086 166.797,157.851 166.797 C 157.629 166.797,157.548 167.061,157.671 167.383 C 157.795 167.705,157.691 167.969,157.441 167.969 C 157.190 167.969,157.094 168.145,157.227 168.359 C 157.359 168.574,157.253 168.750,156.989 168.750 C 156.726 168.750,156.625 168.864,156.765 169.004 C 156.905 169.144,156.714 169.509,156.342 169.815 C 155.920 170.160,155.886 170.263,156.250 170.086 C 156.572 169.929,156.326 170.349,155.702 171.019 C 155.078 171.690,154.419 172.146,154.237 172.033 C 154.055 171.921,153.906 172.010,153.906 172.230 C 153.906 172.451,153.643 172.531,153.320 172.407 C 152.998 172.283,152.734 172.377,152.734 172.614 C 152.734 173.196,150.667 173.167,150.078 172.578 C 149.820 172.320,149.609 172.272,149.609 172.470 C 149.609 172.668,149.334 172.436,148.997 171.955 C 148.660 171.474,148.220 171.182,148.020 171.306 C 147.691 171.509,147.490 170.974,147.610 170.215 C 147.635 170.054,147.486 169.922,147.278 169.922 C 147.070 169.922,147.001 169.658,147.124 169.336 C 147.248 169.014,147.199 168.750,147.014 168.749 C 146.830 168.749,146.680 167.343,146.680 165.624 C 146.680 163.906,146.823 162.500,146.999 162.500 C 147.175 162.500,147.207 162.148,147.070 161.719 C 146.923 161.253,147.000 160.938,147.262 160.938 C 147.504 160.938,147.594 160.762,147.461 160.547 C 147.328 160.332,147.416 160.156,147.656 160.156 C 147.896 160.156,147.984 159.980,147.852 159.766 C 147.719 159.551,147.807 159.375,148.047 159.375 C 148.287 159.375,148.384 159.214,148.263 159.017 C 147.986 158.570,149.957 156.178,150.385 156.442 C 150.558 156.549,150.790 156.401,150.900 156.114 C 151.115 155.554,155.078 155.402,155.078 155.953 M89.238 166.829 C 89.095 167.061,88.557 167.145,88.043 167.016 C 87.473 166.873,87.109 166.953,87.109 167.222 C 87.109 167.464,86.846 167.561,86.523 167.437 C 86.201 167.313,85.938 167.370,85.938 167.564 C 85.938 167.885,85.180 168.251,84.180 168.414 C 83.965 168.449,83.556 168.758,83.272 169.102 C 82.868 169.590,82.813 169.598,83.022 169.141 C 83.169 168.818,82.873 169.049,82.366 169.652 C 81.858 170.256,81.004 171.106,80.467 171.542 C 79.931 171.977,79.756 172.217,80.078 172.074 C 80.400 171.932,80.276 172.159,79.802 172.578 C 79.328 172.997,79.049 173.450,79.183 173.584 C 79.317 173.718,79.212 173.828,78.948 173.828 C 78.685 173.828,78.578 174.004,78.711 174.219 C 78.844 174.434,78.756 174.609,78.516 174.609 C 78.275 174.609,78.188 174.785,78.320 175.000 C 78.453 175.215,78.365 175.391,78.125 175.391 C 77.885 175.391,77.797 175.566,77.930 175.781 C 78.062 175.996,77.990 176.172,77.770 176.172 C 77.549 176.172,77.469 176.436,77.593 176.758 C 77.717 177.080,77.629 177.344,77.398 177.344 C 77.167 177.344,77.079 177.607,77.202 177.930 C 77.326 178.252,77.221 178.516,76.969 178.516 C 76.688 178.516,76.606 178.818,76.758 179.297 C 76.902 179.751,76.828 180.078,76.581 180.078 C 76.324 180.078,76.253 180.462,76.402 181.055 C 76.545 181.626,76.479 182.031,76.242 182.031 C 75.984 182.031,75.920 182.830,76.066 184.240 C 76.233 185.859,76.173 186.375,75.842 186.170 C 75.533 185.980,75.391 186.324,75.391 187.259 C 75.391 188.011,75.586 188.746,75.824 188.894 C 76.078 189.051,76.169 189.708,76.044 190.479 C 75.915 191.277,75.993 191.797,76.242 191.797 C 76.468 191.797,76.562 192.148,76.449 192.578 C 76.337 193.008,76.425 193.359,76.645 193.359 C 76.864 193.359,76.952 193.711,76.840 194.141 C 76.728 194.570,76.814 194.922,77.031 194.922 C 77.249 194.922,77.326 195.186,77.202 195.508 C 77.079 195.830,77.167 196.094,77.398 196.094 C 77.629 196.094,77.713 196.367,77.585 196.700 C 77.433 197.096,77.510 197.209,77.805 197.027 C 78.107 196.840,78.175 196.963,78.008 197.397 C 77.871 197.754,77.908 198.047,78.090 198.047 C 78.397 198.047,79.355 199.967,79.396 200.667 C 79.406 200.837,79.642 201.152,79.920 201.367 C 80.198 201.582,80.479 202.015,80.545 202.330 C 80.610 202.645,81.016 203.210,81.445 203.587 C 81.875 203.963,82.122 204.277,81.994 204.284 C 81.866 204.291,82.833 205.398,84.142 206.743 C 85.452 208.089,86.657 209.132,86.819 209.062 C 86.982 208.992,87.220 209.209,87.348 209.543 C 87.477 209.878,87.740 210.054,87.934 209.934 C 88.128 209.814,88.392 209.990,88.520 210.325 C 88.649 210.659,88.911 210.836,89.103 210.717 C 89.296 210.598,89.453 210.697,89.453 210.938 C 89.453 211.178,89.629 211.266,89.844 211.133 C 90.059 211.000,90.234 211.088,90.234 211.328 C 90.234 211.568,90.410 211.656,90.625 211.523 C 90.840 211.391,91.016 211.463,91.016 211.683 C 91.016 211.904,91.279 211.984,91.602 211.860 C 91.924 211.736,92.188 211.824,92.188 212.055 C 92.188 212.286,92.451 212.374,92.773 212.251 C 93.096 212.127,93.359 212.232,93.359 212.485 C 93.359 212.759,93.660 212.848,94.108 212.706 C 94.519 212.575,94.969 212.651,95.107 212.875 C 95.453 213.435,100.000 213.407,100.000 212.845 C 100.000 212.590,100.407 212.487,100.977 212.596 C 101.514 212.698,101.953 212.612,101.953 212.404 C 101.953 212.196,102.217 212.127,102.539 212.251 C 102.861 212.374,103.125 212.286,103.125 212.055 C 103.125 211.824,103.389 211.736,103.711 211.860 C 104.033 211.984,104.297 211.904,104.297 211.683 C 104.297 211.463,104.473 211.391,104.688 211.523 C 104.902 211.656,105.078 211.568,105.078 211.328 C 105.078 211.088,105.254 211.000,105.469 211.133 C 105.684 211.266,105.859 211.159,105.859 210.895 C 105.859 210.632,105.969 210.526,106.103 210.660 C 106.237 210.795,106.690 210.516,107.110 210.042 C 107.529 209.568,107.751 209.443,107.604 209.766 C 107.457 210.088,107.752 209.858,108.259 209.254 C 108.767 208.650,109.621 207.800,110.158 207.365 C 110.694 206.929,110.869 206.689,110.547 206.832 C 110.225 206.974,110.349 206.748,110.823 206.328 C 111.297 205.909,111.580 205.460,111.451 205.331 C 111.322 205.202,111.504 204.986,111.856 204.851 C 112.208 204.716,112.398 204.448,112.279 204.256 C 112.161 204.064,112.260 203.906,112.500 203.906 C 112.740 203.906,112.828 203.730,112.695 203.516 C 112.563 203.301,112.635 203.125,112.855 203.125 C 113.076 203.125,113.156 202.861,113.032 202.539 C 112.908 202.217,112.996 201.953,113.227 201.953 C 113.458 201.953,113.546 201.689,113.423 201.367 C 113.299 201.045,113.387 200.781,113.618 200.781 C 113.849 200.781,113.937 200.518,113.813 200.195 C 113.689 199.873,113.786 199.609,114.028 199.609 C 114.302 199.609,114.376 199.241,114.223 198.633 C 114.088 198.096,114.129 197.656,114.313 197.656 C 114.498 197.656,114.648 195.563,114.648 193.006 C 114.648 190.326,114.498 188.448,114.294 188.574 C 114.093 188.699,114.047 188.263,114.187 187.561 C 114.342 186.785,114.277 186.328,114.011 186.328 C 113.778 186.328,113.689 186.064,113.813 185.742 C 113.937 185.420,113.856 185.156,113.633 185.156 C 113.398 185.156,113.339 184.808,113.492 184.326 C 113.687 183.711,113.626 183.576,113.257 183.804 C 112.902 184.023,112.830 183.925,113.007 183.463 C 113.145 183.105,113.068 182.813,112.837 182.813 C 112.605 182.813,112.521 182.540,112.649 182.206 C 112.801 181.810,112.725 181.697,112.429 181.880 C 112.127 182.067,112.059 181.943,112.226 181.509 C 112.363 181.152,112.295 180.859,112.074 180.859 C 111.853 180.859,111.781 180.684,111.914 180.469 C 112.047 180.254,111.940 180.078,111.677 180.078 C 111.413 180.078,111.312 179.964,111.452 179.824 C 111.592 179.684,111.402 179.319,111.029 179.014 C 110.581 178.646,110.550 178.545,110.938 178.716 C 111.260 178.858,111.169 178.651,110.735 178.257 C 109.498 177.131,108.313 175.597,108.984 175.991 C 109.307 176.180,108.779 175.550,107.813 174.591 C 106.846 173.632,105.935 172.895,105.788 172.954 C 105.642 173.012,105.275 172.707,104.972 172.275 C 104.670 171.843,104.310 171.601,104.173 171.738 C 104.037 171.875,103.814 171.699,103.679 171.347 C 103.544 170.995,103.283 170.801,103.098 170.915 C 102.914 171.029,102.420 170.779,102.000 170.359 C 101.580 169.940,101.134 169.699,101.009 169.824 C 100.884 169.950,100.781 169.837,100.781 169.573 C 100.781 169.310,100.605 169.203,100.391 169.336 C 100.176 169.469,100.000 169.397,100.000 169.176 C 100.000 168.955,99.707 168.887,99.350 169.024 C 98.916 169.191,98.793 169.123,98.980 168.821 C 99.162 168.525,99.049 168.449,98.653 168.601 C 98.320 168.729,98.047 168.645,98.047 168.413 C 98.047 168.182,97.755 168.105,97.397 168.243 C 96.935 168.420,96.836 168.348,97.055 167.993 C 97.284 167.624,97.148 167.563,96.533 167.758 C 96.075 167.903,95.703 167.851,95.703 167.641 C 95.703 167.432,95.324 167.360,94.861 167.481 C 94.307 167.626,94.109 167.554,94.284 167.272 C 94.466 166.977,94.119 166.913,93.173 167.066 C 92.278 167.212,91.797 167.135,91.797 166.848 C 91.797 166.284,89.585 166.267,89.238 166.829 M87.500 181.351 C 87.500 181.536,87.656 181.590,87.846 181.473 C 88.037 181.355,88.410 181.520,88.675 181.840 C 88.941 182.160,89.015 182.422,88.840 182.422 C 88.666 182.422,88.847 182.659,89.243 182.949 C 89.639 183.238,89.838 183.678,89.685 183.925 C 89.532 184.173,89.612 184.375,89.863 184.375 C 90.158 184.375,90.230 184.731,90.066 185.384 C 89.901 186.039,89.955 186.305,90.219 186.142 C 90.477 185.983,90.625 186.532,90.625 187.649 C 90.625 188.616,90.449 189.516,90.233 189.649 C 90.017 189.783,89.948 190.320,90.080 190.844 C 90.223 191.412,90.149 191.797,89.898 191.797 C 89.667 191.797,89.579 192.061,89.702 192.383 C 89.826 192.705,89.733 192.969,89.495 192.969 C 89.257 192.969,89.104 193.101,89.154 193.262 C 89.281 193.669,87.207 195.671,86.938 195.401 C 86.817 195.281,86.719 195.387,86.719 195.638 C 86.719 195.889,86.269 196.094,85.719 196.094 C 85.063 196.094,84.815 195.939,84.998 195.643 C 85.176 195.355,85.105 195.298,84.801 195.486 C 84.282 195.807,82.714 194.616,83.015 194.129 C 83.116 193.966,82.918 193.724,82.574 193.592 C 82.219 193.456,82.046 193.102,82.174 192.770 C 82.297 192.450,82.268 192.188,82.111 192.188 C 81.953 192.188,81.827 190.693,81.830 188.867 C 81.833 187.041,81.962 185.547,82.117 185.547 C 82.271 185.547,82.296 185.283,82.173 184.961 C 82.049 184.639,82.153 184.375,82.403 184.375 C 82.654 184.375,82.750 184.199,82.617 183.984 C 82.484 183.770,82.591 183.594,82.855 183.594 C 83.118 183.594,83.214 183.474,83.067 183.328 C 82.475 182.735,84.753 181.016,86.131 181.016 C 86.884 181.016,87.500 181.167,87.500 181.351 M101.563 184.831 C 101.563 185.081,101.661 185.188,101.781 185.067 C 102.051 184.798,104.124 186.800,103.998 187.207 C 103.947 187.368,104.101 187.500,104.339 187.500 C 104.576 187.500,104.670 187.764,104.546 188.086 C 104.423 188.408,104.453 188.672,104.613 188.672 C 104.773 188.672,104.899 190.078,104.894 191.797 C 104.888 193.515,104.739 194.922,104.564 194.922 C 104.388 194.922,104.356 195.273,104.492 195.703 C 104.631 196.141,104.562 196.484,104.335 196.484 C 104.113 196.484,104.032 196.748,104.156 197.070 C 104.279 197.393,104.186 197.656,103.948 197.656 C 103.710 197.656,103.557 197.788,103.607 197.949 C 103.734 198.356,101.660 200.358,101.391 200.089 C 101.270 199.968,101.172 200.053,101.172 200.277 C 101.172 200.500,100.732 200.684,100.195 200.684 C 99.658 200.684,99.219 200.500,99.219 200.277 C 99.219 200.053,99.119 199.969,98.997 200.091 C 98.493 200.595,96.058 197.604,96.314 196.796 C 96.454 196.356,96.413 196.092,96.223 196.209 C 96.033 196.327,95.882 195.030,95.888 193.329 C 95.894 191.627,96.042 190.235,96.218 190.235 C 96.393 190.234,96.425 189.883,96.289 189.453 C 96.141 188.988,96.219 188.672,96.481 188.672 C 96.723 188.672,96.796 188.469,96.643 188.222 C 96.490 187.975,96.689 187.535,97.085 187.245 C 97.481 186.956,97.653 186.719,97.468 186.719 C 97.282 186.719,97.537 186.285,98.036 185.754 C 98.534 185.224,99.080 184.875,99.249 184.979 C 99.417 185.084,99.666 184.990,99.801 184.772 C 100.140 184.224,101.563 184.271,101.563 184.831 M143.750 198.539 C 143.750 198.723,143.926 198.766,144.141 198.633 C 144.355 198.500,144.531 198.588,144.531 198.828 C 144.531 199.068,144.692 199.166,144.888 199.044 C 145.084 198.923,145.624 199.308,146.089 199.900 C 146.553 200.492,146.811 200.713,146.661 200.391 C 146.511 200.068,147.143 200.596,148.064 201.563 C 150.727 204.356,150.396 207.561,147.281 209.172 C 146.682 209.481,146.083 209.654,145.948 209.555 C 145.813 209.456,145.788 209.489,145.892 209.629 C 145.996 209.769,145.777 210.134,145.404 210.440 C 144.951 210.811,144.921 210.912,145.313 210.743 C 145.635 210.604,145.215 211.094,144.380 211.833 C 143.546 212.571,142.258 213.858,141.520 214.693 C 140.782 215.528,140.291 215.947,140.430 215.625 C 140.569 215.303,140.394 215.391,140.040 215.820 C 139.687 216.250,139.235 216.558,139.035 216.504 C 138.835 216.450,138.672 216.592,138.672 216.820 C 138.672 217.047,138.496 217.125,138.281 216.992 C 138.066 216.859,137.891 216.947,137.891 217.188 C 137.891 217.428,137.733 217.527,137.541 217.408 C 137.349 217.289,137.083 217.473,136.952 217.816 C 136.815 218.172,136.462 218.344,136.130 218.217 C 135.809 218.094,135.547 218.158,135.547 218.359 C 135.547 218.561,135.254 218.613,134.897 218.476 C 134.424 218.295,134.334 218.368,134.567 218.745 C 134.808 219.134,134.677 219.209,134.045 219.043 C 133.582 218.922,133.203 219.002,133.203 219.220 C 133.203 219.447,132.788 219.512,132.227 219.371 C 131.689 219.236,131.250 219.287,131.250 219.483 C 131.250 219.889,124.221 219.820,123.553 219.407 C 123.314 219.259,122.870 219.233,122.567 219.349 C 121.906 219.603,119.821 218.057,120.137 217.547 C 120.259 217.349,120.216 217.187,120.043 217.187 C 119.869 217.186,119.708 216.659,119.685 216.015 C 119.662 215.371,119.823 214.844,120.043 214.844 C 120.263 214.844,120.327 214.728,120.186 214.587 C 119.832 214.233,120.708 213.238,121.138 213.504 C 121.329 213.622,121.484 213.521,121.484 213.281 C 121.484 213.041,121.660 212.953,121.875 213.086 C 122.090 213.219,122.266 213.117,122.266 212.860 C 122.266 212.522,122.874 212.464,124.461 212.650 C 125.888 212.818,126.843 212.753,127.190 212.465 C 127.484 212.221,127.990 212.124,128.315 212.249 C 128.640 212.373,128.906 212.285,128.906 212.052 C 128.906 211.818,129.258 211.720,129.688 211.832 C 130.117 211.944,130.469 211.858,130.469 211.640 C 130.469 211.423,130.732 211.346,131.055 211.469 C 131.377 211.593,131.641 211.505,131.641 211.274 C 131.641 211.043,131.904 210.955,132.227 211.079 C 132.549 211.202,132.813 211.123,132.813 210.902 C 132.813 210.681,132.988 210.609,133.203 210.742 C 133.418 210.875,133.594 210.787,133.594 210.547 C 133.594 210.307,133.770 210.219,133.984 210.352 C 134.199 210.484,134.375 210.396,134.375 210.156 C 134.375 209.916,134.532 209.817,134.725 209.936 C 134.917 210.055,135.185 209.864,135.320 209.512 C 135.455 209.160,135.664 208.971,135.785 209.092 C 135.906 209.213,136.540 208.755,137.194 208.074 C 137.848 207.393,138.163 207.144,137.894 207.520 C 137.087 208.647,137.650 208.295,139.084 206.777 C 139.824 205.993,140.166 205.499,139.844 205.680 C 139.346 205.960,139.336 205.913,139.773 205.373 C 140.166 204.889,140.185 204.543,139.853 203.923 C 139.613 203.475,139.523 202.937,139.653 202.726 C 139.783 202.516,139.704 202.344,139.476 202.344 C 139.249 202.344,139.063 201.904,139.063 201.367 C 139.063 200.830,139.268 200.391,139.518 200.391 C 139.769 200.391,139.878 200.294,139.760 200.177 C 139.642 200.059,139.898 199.567,140.329 199.083 C 141.103 198.214,143.750 197.793,143.750 198.539 M116.016 212.622 C 116.016 212.689,115.444 213.261,114.746 213.892 L 113.477 215.039 114.624 213.770 C 115.693 212.586,116.016 212.320,116.016 212.622 M126.423 252.198 C 126.669 252.299,126.782 252.719,126.674 253.131 C 126.269 254.681,127.931 264.149,129.139 267.168 C 129.677 268.512,130.976 270.025,131.752 270.211 C 131.921 270.252,132.307 270.533,132.611 270.836 C 134.015 272.240,142.029 272.640,144.236 271.416 C 144.721 271.148,145.254 270.967,145.421 271.014 C 145.588 271.062,145.826 270.837,145.950 270.514 C 146.074 270.191,146.320 270.015,146.495 270.124 C 146.825 270.328,148.432 268.310,148.612 267.466 C 148.668 267.206,149.001 266.343,149.353 265.549 C 149.983 264.127,149.887 262.891,149.147 262.891 C 148.716 262.891,140.978 259.871,138.190 258.615 C 137.174 258.157,136.244 257.795,136.126 257.811 C 136.007 257.827,135.638 257.569,135.306 257.237 C 134.974 256.905,134.541 256.733,134.344 256.855 C 134.146 256.977,133.984 256.881,133.984 256.641 C 133.984 256.400,133.809 256.313,133.594 256.445 C 133.379 256.578,133.203 256.525,133.203 256.327 C 133.203 256.130,132.375 255.548,131.363 255.035 C 130.350 254.521,129.181 253.800,128.764 253.431 C 128.348 253.063,127.876 252.842,127.716 252.941 C 127.556 253.040,127.325 252.858,127.202 252.537 C 127.078 252.216,126.752 251.967,126.477 251.984 C 126.141 252.005,126.123 252.075,126.423 252.198 M191.706 288.955 C 192.408 289.042,193.463 289.040,194.050 288.951 C 194.637 288.862,194.063 288.791,192.773 288.793 C 191.484 288.795,191.004 288.868,191.706 288.955 M209.675 288.955 C 210.377 289.042,211.432 289.040,212.019 288.951 C 212.606 288.862,212.031 288.791,210.742 288.793 C 209.453 288.795,208.973 288.868,209.675 288.955 M293.280 324.900 C 295.063 324.973,297.875 324.972,299.530 324.899 C 301.185 324.826,299.727 324.767,296.289 324.767 C 292.852 324.768,291.498 324.828,293.280 324.900 M183.302 326.367 C 183.306 327.227,183.386 327.532,183.479 327.046 C 183.573 326.560,183.569 325.857,183.472 325.484 C 183.374 325.110,183.297 325.508,183.302 326.367 M295.824 333.789 C 295.826 335.078,295.899 335.558,295.986 334.856 C 296.073 334.154,296.071 333.100,295.982 332.513 C 295.893 331.926,295.822 332.500,295.824 333.789 " stroke="none" fill="#f19a96" fill-rule="evenodd"></path><path id="path3" d="M213.086 40.493 C 189.060 45.634,176.680 73.926,189.076 95.364 C 191.105 98.873,197.664 105.634,198.732 105.319 C 202.912 104.085,224.878 104.040,234.500 105.246 C 240.372 105.982,239.857 106.177,244.378 101.503 C 268.821 76.236,246.789 33.280,213.086 40.493 M218.782 50.395 C 219.273 50.952,219.339 51.530,219.104 53.185 C 218.569 56.949,218.589 57.031,220.070 57.031 L 221.389 57.031 221.837 54.021 C 222.358 50.520,222.591 50.281,225.173 50.594 C 227.893 50.924,227.859 50.865,227.556 54.740 C 227.310 57.884,227.351 58.228,227.998 58.448 C 236.931 61.491,240.153 70.328,234.344 75.855 C 233.001 77.133,232.914 77.323,233.572 77.532 C 236.051 78.319,238.136 82.625,237.770 86.201 C 237.119 92.554,233.181 95.976,225.977 96.449 L 222.461 96.680 221.997 99.736 C 221.408 103.612,221.138 103.944,218.810 103.657 C 216.291 103.346,215.655 102.531,216.050 100.126 C 216.677 96.309,216.567 95.807,215.061 95.632 C 213.551 95.455,213.521 95.508,213.055 99.219 C 212.625 102.654,212.411 102.876,209.823 102.579 C 206.864 102.239,206.664 101.894,207.259 98.161 C 207.846 94.475,208.041 94.698,203.602 93.980 C 198.918 93.222,199.070 93.353,199.352 90.330 C 199.668 86.952,199.867 86.767,202.919 87.012 C 205.317 87.204,205.437 87.172,205.634 86.282 C 205.852 85.303,208.562 65.352,208.705 63.672 C 208.783 62.761,208.624 62.669,206.333 62.305 C 203.377 61.834,203.150 61.533,203.598 58.671 C 204.060 55.725,204.006 55.755,208.726 55.830 C 213.355 55.904,213.018 56.150,213.492 52.344 C 213.639 51.162,213.932 49.981,214.144 49.720 C 214.695 49.037,218.012 49.520,218.782 50.395 M217.830 64.746 C 217.289 66.679,216.744 72.369,217.068 72.693 C 217.872 73.497,223.639 74.006,225.201 73.412 C 229.602 71.736,229.336 66.346,224.773 64.763 C 222.100 63.836,218.088 63.826,217.830 64.746 M215.832 80.566 C 215.473 82.641,214.860 87.256,214.851 87.940 C 214.828 89.894,224.850 89.670,226.855 87.671 C 230.971 83.570,225.511 79.297,216.156 79.297 C 216.098 79.297,215.952 79.868,215.832 80.566 " stroke="none" fill="#f4bb40" fill-rule="evenodd"></path><path id="path4" d="M243.927 102.051 L 242.383 103.711 244.043 102.167 C 245.587 100.731,245.883 100.391,245.587 100.391 C 245.523 100.391,244.776 101.138,243.927 102.051 M223.735 104.573 C 224.221 104.667,224.924 104.663,225.298 104.565 C 225.671 104.467,225.273 104.391,224.414 104.395 C 223.555 104.400,223.249 104.480,223.735 104.573 M221.973 111.988 C 222.349 112.086,222.964 112.086,223.340 111.988 C 223.716 111.890,223.408 111.809,222.656 111.809 C 221.904 111.809,221.597 111.890,221.973 111.988 M201.465 114.338 C 201.948 114.431,202.739 114.431,203.223 114.338 C 203.706 114.245,203.311 114.169,202.344 114.169 C 201.377 114.169,200.981 114.245,201.465 114.338 M210.255 122.461 C 210.259 123.320,210.339 123.626,210.433 123.140 C 210.526 122.654,210.522 121.951,210.425 121.577 C 210.327 121.204,210.250 121.602,210.255 122.461 M218.059 124.219 C 218.059 124.971,218.140 125.278,218.238 124.902 C 218.336 124.526,218.336 123.911,218.238 123.535 C 218.140 123.159,218.059 123.467,218.059 124.219 M210.247 127.734 C 210.247 128.486,210.327 128.794,210.426 128.418 C 210.524 128.042,210.524 127.427,210.426 127.051 C 210.327 126.675,210.247 126.982,210.247 127.734 M218.059 128.906 C 218.059 129.658,218.140 129.966,218.238 129.590 C 218.336 129.214,218.336 128.599,218.238 128.223 C 218.140 127.847,218.059 128.154,218.059 128.906 M76.733 164.941 L 75.586 166.211 76.855 165.064 C 78.039 163.994,78.305 163.672,78.003 163.672 C 77.936 163.672,77.364 164.243,76.733 164.941 M303.627 172.852 C 303.630 173.926,303.706 174.319,303.796 173.725 C 303.886 173.131,303.883 172.252,303.791 171.772 C 303.698 171.292,303.624 171.777,303.627 172.852 M303.614 179.492 C 303.618 180.352,303.698 180.657,303.792 180.171 C 303.885 179.685,303.882 178.982,303.784 178.609 C 303.686 178.235,303.610 178.633,303.614 179.492 M89.955 188.086 C 89.958 189.160,90.034 189.553,90.124 188.959 C 90.214 188.366,90.211 187.487,90.119 187.006 C 90.026 186.526,89.953 187.012,89.955 188.086 M114.969 192.969 C 114.969 194.365,115.040 194.937,115.126 194.238 C 115.213 193.540,115.213 192.397,115.126 191.699 C 115.040 191.001,114.969 191.572,114.969 192.969 M83.789 207.031 C 84.628 207.891,85.403 208.594,85.510 208.594 C 85.618 208.594,85.019 207.891,84.180 207.031 C 83.341 206.172,82.566 205.469,82.459 205.469 C 82.351 205.469,82.950 206.172,83.789 207.031 M105.859 235.278 C 105.859 235.346,106.431 235.917,107.129 236.548 L 108.398 237.695 107.251 236.426 C 106.182 235.242,105.859 234.977,105.859 235.278 M206.348 267.847 C 206.724 267.946,207.339 267.946,207.715 267.847 C 208.091 267.749,207.783 267.669,207.031 267.669 C 206.279 267.669,205.972 267.749,206.348 267.847 M209.675 268.642 C 210.377 268.729,211.432 268.728,212.019 268.638 C 212.606 268.549,212.031 268.478,210.742 268.480 C 209.453 268.483,208.973 268.556,209.675 268.642 M171.191 288.160 C 171.567 288.258,172.183 288.258,172.559 288.160 C 172.935 288.062,172.627 287.981,171.875 287.981 C 171.123 287.981,170.815 288.062,171.191 288.160 M225.688 288.558 C 226.174 288.651,226.877 288.647,227.251 288.550 C 227.624 288.452,227.227 288.375,226.367 288.380 C 225.508 288.384,225.202 288.464,225.688 288.558 M198.125 288.962 C 199.994 289.034,203.158 289.034,205.156 288.963 C 207.154 288.892,205.625 288.834,201.758 288.833 C 197.891 288.833,196.256 288.891,198.125 288.962 M181.375 312.109 C 181.375 313.506,181.446 314.077,181.533 313.379 C 181.619 312.681,181.619 311.538,181.533 310.840 C 181.446 310.142,181.375 310.713,181.375 312.109 M231.820 326.758 C 231.820 336.211,231.871 340.022,231.933 335.227 C 231.995 330.432,231.995 322.698,231.933 318.040 C 231.871 313.382,231.820 317.305,231.820 326.758 M261.508 326.953 C 261.508 336.514,261.559 340.425,261.621 335.645 C 261.683 330.864,261.683 323.042,261.621 318.262 C 261.559 313.481,261.508 317.393,261.508 326.953 M137.409 315.517 C 138.111 315.604,139.166 315.603,139.753 315.513 C 140.340 315.424,139.766 315.353,138.477 315.355 C 137.188 315.358,136.707 315.431,137.409 315.517 M158.105 315.522 C 159.233 315.601,161.079 315.601,162.207 315.522 C 163.335 315.443,162.412 315.379,160.156 315.379 C 157.900 315.379,156.978 315.443,158.105 315.522 M174.721 315.523 C 175.964 315.601,177.898 315.601,179.018 315.522 C 180.138 315.443,179.121 315.380,176.758 315.380 C 174.395 315.381,173.478 315.446,174.721 315.523 M240.728 315.515 C 241.322 315.604,242.201 315.602,242.681 315.509 C 243.162 315.417,242.676 315.343,241.602 315.346 C 240.527 315.349,240.134 315.425,240.728 315.515 M239.133 320.778 C 239.094 323.504,239.194 325.817,239.355 325.918 C 239.517 326.018,239.601 324.578,239.544 322.718 C 239.351 316.476,239.204 315.783,239.133 320.778 M152.442 320.898 C 152.447 321.758,152.527 322.063,152.620 321.577 C 152.713 321.092,152.710 320.388,152.612 320.015 C 152.514 319.642,152.438 320.039,152.442 320.898 M326.660 324.900 C 328.325 324.973,331.050 324.973,332.715 324.900 C 334.380 324.827,333.018 324.767,329.688 324.767 C 326.357 324.767,324.995 324.827,326.660 324.900 M282.148 326.953 C 282.148 328.135,282.222 328.618,282.311 328.027 C 282.401 327.437,282.401 326.470,282.311 325.879 C 282.222 325.288,282.148 325.771,282.148 326.953 M315.742 327.344 C 315.742 328.525,315.815 329.009,315.905 328.418 C 315.994 327.827,315.994 326.860,315.905 326.270 C 315.815 325.679,315.742 326.162,315.742 327.344 M78.418 326.064 C 79.116 326.150,80.259 326.150,80.957 326.064 C 81.655 325.977,81.084 325.906,79.688 325.906 C 78.291 325.906,77.720 325.977,78.418 326.064 M289.188 328.125 C 289.188 329.521,289.258 330.093,289.345 329.395 C 289.432 328.696,289.432 327.554,289.345 326.855 C 289.258 326.157,289.188 326.729,289.188 328.125 M303.286 332.422 C 303.286 336.182,303.344 337.720,303.416 335.840 C 303.487 333.960,303.487 330.884,303.416 329.004 C 303.344 327.124,303.286 328.662,303.286 332.422 M105.950 332.422 C 105.950 333.174,106.030 333.481,106.129 333.105 C 106.227 332.729,106.227 332.114,106.129 331.738 C 106.030 331.362,105.950 331.670,105.950 332.422 M356.410 337.695 C 356.409 341.348,356.468 342.894,356.540 341.132 C 356.613 339.371,356.613 336.382,356.541 334.492 C 356.469 332.601,356.410 334.043,356.410 337.695 M329.425 334.180 C 329.427 335.684,329.497 336.251,329.582 335.441 C 329.667 334.630,329.665 333.400,329.579 332.706 C 329.493 332.013,329.423 332.676,329.425 334.180 M239.218 338.672 C 239.218 341.787,239.278 343.062,239.353 341.504 C 239.427 339.946,239.427 337.397,239.353 335.840 C 239.278 334.282,239.218 335.557,239.218 338.672 M73.438 344.531 L 70.117 344.776 73.317 344.849 C 75.112 344.890,76.622 344.750,76.758 344.531 C 76.891 344.316,76.945 344.173,76.879 344.213 C 76.812 344.253,75.264 344.396,73.438 344.531 M349.568 344.648 C 349.741 344.820,351.095 344.906,352.578 344.839 L 355.273 344.719 352.264 344.527 C 350.608 344.422,349.395 344.476,349.568 344.648 M89.160 344.818 C 90.181 344.899,91.851 344.899,92.871 344.818 C 93.892 344.738,93.057 344.672,91.016 344.672 C 88.975 344.672,88.140 344.738,89.160 344.818 M108.116 344.818 C 109.035 344.900,110.441 344.899,111.241 344.815 C 112.041 344.731,111.289 344.664,109.570 344.665 C 107.852 344.667,107.197 344.735,108.116 344.818 M130.381 344.818 C 131.300 344.900,132.706 344.899,133.506 344.815 C 134.306 344.731,133.555 344.664,131.836 344.665 C 130.117 344.667,129.463 344.735,130.381 344.818 M166.895 344.816 C 167.700 344.900,169.019 344.900,169.824 344.816 C 170.630 344.732,169.971 344.663,168.359 344.663 C 166.748 344.663,166.089 344.732,166.895 344.816 M233.887 344.817 C 234.800 344.900,236.294 344.900,237.207 344.817 C 238.120 344.735,237.373 344.668,235.547 344.668 C 233.721 344.668,232.974 344.735,233.887 344.817 " stroke="none" fill="#925f58" fill-rule="evenodd"></path></g></svg>